<svg width="106" height="145" viewBox="0 0 106 145" fill="none" xmlns="http://www.w3.org/2000/svg">
<mask id="mask0_485_866" style="mask-type:luminance" maskUnits="userSpaceOnUse" x="1" y="1" width="103" height="103">
<path d="M1.64062 1.6418H103.411V103.411H1.64062V1.6418Z" fill="white"/>
</mask>
<g mask="url(#mask0_485_866)">
<path d="M55.4373 98.9252L98.9279 55.4346C99.6998 54.6625 100.133 53.6154 100.133 52.5237C100.133 51.432 99.6998 50.385 98.9279 49.6128L55.4373 6.12638C55.0553 5.74362 54.6016 5.43996 54.1021 5.23277C53.6026 5.02558 53.0671 4.91894 52.5263 4.91894C51.9855 4.91894 51.4501 5.02558 50.9505 5.23277C50.451 5.43996 49.9973 5.74362 49.6153 6.12638L6.12571 49.6128C5.74343 49.9951 5.44019 50.4489 5.2333 50.9484C5.02641 51.4478 4.91992 51.9831 4.91992 52.5237C4.91992 53.0643 5.02641 53.5996 5.2333 54.0991C5.44019 54.5985 5.74343 55.0524 6.12571 55.4346L49.6163 98.9252C49.9985 99.3074 50.4523 99.6107 50.9517 99.8175C51.451 100.024 51.9863 100.131 52.5268 100.131C53.0674 100.131 53.6026 100.024 54.102 99.8175C54.6014 99.6107 55.0551 99.3074 55.4373 98.9252Z" fill="white"/>
<path d="M48.2716 100.269L4.78202 56.7777C4.22326 56.2193 3.78001 55.5563 3.4776 54.8265C3.17519 54.0967 3.01953 53.3145 3.01953 52.5246C3.01953 51.7347 3.17519 50.9525 3.4776 50.2227C3.78001 49.4929 4.22326 48.8299 4.78202 48.2715L48.2716 4.78193C48.8303 4.22326 49.4935 3.7801 50.2235 3.47775C50.9535 3.17539 51.7358 3.01977 52.5259 3.01977C53.316 3.01977 54.0984 3.17539 54.8284 3.47775C55.5583 3.7801 56.2216 4.22326 56.7803 4.78193L100.27 48.2705C101.398 49.3987 102.032 50.9287 102.032 52.5241C102.032 54.1194 101.398 55.6495 100.27 56.7777L56.7803 100.267C56.2217 100.826 55.5585 101.27 54.8285 101.572C54.0985 101.875 53.3161 102.03 52.5259 102.03C51.7357 102.03 50.9533 101.875 50.2233 101.572C49.4933 101.27 48.8301 100.826 48.2716 100.267" fill="white"/>
<path d="M48.1536 101.598L3.45307 56.8962C2.8785 56.3222 2.42268 55.6407 2.11169 54.8905C1.8007 54.1403 1.64063 53.3362 1.64062 52.5241C1.64063 51.7121 1.8007 50.9079 2.11169 50.1577C2.42268 49.4076 2.8785 48.726 3.45307 48.1521L48.1536 3.45166C48.7278 2.87733 49.4095 2.42173 50.1597 2.11089C50.91 1.80006 51.7142 1.64008 52.5263 1.64008C53.3385 1.64008 54.1426 1.80006 54.8929 2.11089C55.6432 2.42173 56.3249 2.87733 56.8991 3.45166L101.601 48.1521C102.76 49.3119 103.411 50.8845 103.411 52.5241C103.411 54.1638 102.76 55.7364 101.601 56.8962L56.8991 101.599C56.325 102.173 55.6434 102.629 54.8931 102.94C54.1428 103.251 53.3385 103.411 52.5263 103.411C51.7141 103.411 50.9099 103.251 50.1596 102.94C49.4093 102.629 48.7276 102.173 48.1536 101.599M55.5165 100.216L100.22 55.5146C101.013 54.721 101.459 53.645 101.459 52.5231C101.459 51.4012 101.013 50.3252 100.22 49.5316L55.5175 4.83317C55.125 4.43981 54.6588 4.12773 54.1455 3.9148C53.6323 3.70187 53.082 3.59226 52.5263 3.59226C51.9706 3.59226 51.4204 3.70187 50.9071 3.9148C50.3939 4.12773 49.9277 4.43981 49.5352 4.83317L4.83051 49.5316C4.03724 50.3251 3.5916 51.4011 3.5916 52.5231C3.5916 53.6451 4.03724 54.7211 4.83051 55.5146L49.5352 100.217C49.9278 100.61 50.3941 100.922 50.9073 101.135C51.4206 101.348 51.9707 101.457 52.5263 101.457C53.0819 101.457 53.6321 101.348 54.1454 101.135C54.6586 100.922 55.1249 100.61 55.5175 100.217" fill="#424644"/>
<path fill-rule="evenodd" clip-rule="evenodd" d="M49.7647 93.2167L33.068 76.5197L33.525 76.2674L59.959 34.9245C61.6963 32.2091 59.7418 28.6374 56.5216 28.6374H32.9615L49.7658 11.8308C50.5881 11.011 51.7018 10.5507 52.8629 10.5507C54.0241 10.5507 55.1378 11.011 55.9601 11.8308L72.8854 28.7584L72.5607 28.9362L46.1257 70.2781C44.3884 72.9946 46.3491 76.5641 49.5703 76.5641H72.6134L55.9591 93.2167C55.1372 94.0372 54.0233 94.498 52.8619 94.498C51.7005 94.498 50.5866 94.0372 49.7647 93.2167ZM27.3328 70.7899L12.1686 55.6202C11.3478 54.7985 10.8867 53.6846 10.8867 52.5232C10.8867 51.3618 11.3478 50.2479 12.1686 49.4262L24.7899 36.8065H49.0605L27.3328 70.7899ZM57.0283 68.3971L78.6723 34.544L93.5552 49.4262C93.9624 49.8327 94.2854 50.3154 94.5058 50.8468C94.7262 51.3783 94.8397 51.9479 94.8397 52.5232C94.8397 53.0985 94.7262 53.6682 94.5058 54.1996C94.2854 54.731 93.9624 55.2138 93.5552 55.6202L80.7777 68.3971H57.0304H57.0283Z" fill="#424644"/>
</g>
<path d="M8.28436 136.619V121.885H20.674V124.703H11.6887V136.619H8.28436ZM36.0616 121.885H38.9079V136.619H35.6431V126.099L25.5695 136.619H22.8907V121.885H26.1834V132.182L36.0616 121.885ZM42.4293 136.619V121.885H58.0559V136.619H54.6795V124.703H45.8337V136.619H42.4293ZM61.3081 131.986V126.517C61.3081 124.862 61.6709 123.68 62.3964 122.973C63.1219 122.248 64.3032 121.885 65.9403 121.885H71.9119C73.5489 121.885 74.7302 122.248 75.4558 122.973C76.1813 123.68 76.544 124.862 76.544 126.517V127.661H73.2513V126.992C73.2513 126.08 73.0839 125.457 72.749 125.122C72.4328 124.787 71.8189 124.62 70.9073 124.62H67.0565C66.1449 124.62 65.5217 124.787 65.1869 125.122C64.8706 125.457 64.7125 126.08 64.7125 126.992V131.512C64.7125 132.424 64.8706 133.047 65.1869 133.382C65.5217 133.717 66.1449 133.884 67.0565 133.884H70.9073C71.8189 133.884 72.4328 133.717 72.749 133.382C73.0839 133.047 73.2513 132.424 73.2513 131.512V130.619H76.544V131.986C76.544 133.642 76.1813 134.833 75.4558 135.558C74.7302 136.265 73.5489 136.619 71.9119 136.619H65.9403C64.3032 136.619 63.1219 136.265 62.3964 135.558C61.6709 134.833 61.3081 133.642 61.3081 131.986ZM92.9881 121.885H95.8344V136.619H92.5696V126.099L82.496 136.619H79.8172V121.885H83.1099V132.182L92.9881 121.885Z" fill="white"/>
</svg>
