<svg width="144" height="128" viewBox="0 0 144 128" fill="none" xmlns="http://www.w3.org/2000/svg">
<path d="M114.864 56.3071V96.933H99.6807V62.0522L114.864 56.3071Z" fill="#424644"/>
<path d="M28.2775 42.7651V2.13931H43.4609V37.0201L28.2775 42.7651Z" fill="#424644"/>
<path d="M43.0504 96.9329H28.2773V55.076L99.6803 30.8646V0.908203H114.864V40.7133L43.0504 65.335V96.9329Z" fill="#A4A4A4"/>
<path d="M13.9664 127.481H10.4603V120.255H3.89053V127.481H0.373047V110.738H3.89053V117.3H10.4603V110.738H13.9664V127.481Z" fill="white"/>
<path d="M28.32 127.481L27.1172 123.495H21.0694L19.8667 127.481H16.0769L21.9318 110.669H26.2322L32.1098 127.481H28.32ZM26.2776 120.518C25.1656 116.907 24.5378 114.865 24.394 114.391C24.2579 113.918 24.1595 113.544 24.099 113.269C23.8494 114.246 23.1345 116.662 21.9545 120.518H26.2776Z" fill="white"/>
<path d="M48.9256 127.481H44.455L37.2385 114.815H37.1364C37.2801 117.052 37.352 118.647 37.352 119.602V127.481H34.2089V110.738H38.6455L45.8507 123.278H45.9301C45.8166 121.102 45.7599 119.564 45.7599 118.663V110.738H48.9256V127.481Z" fill="white"/>
<path d="M66.8761 118.949C66.8761 121.705 66.097 123.816 64.5387 125.282C62.988 126.748 60.7451 127.481 57.8101 127.481H53.1126V110.738H58.3207C61.0288 110.738 63.1317 111.459 64.6295 112.902C66.1272 114.345 66.8761 116.361 66.8761 118.949ZM63.2225 119.041C63.2225 115.445 61.6491 113.647 58.5022 113.647H56.63V124.549H58.1391C61.528 124.549 63.2225 122.713 63.2225 119.041Z" fill="white"/>
<path d="M80.7531 127.481H69.1568V125.019L73.321 120.77C74.5541 119.495 75.3597 118.613 75.7379 118.125C76.1161 117.628 76.3884 117.17 76.5549 116.75C76.7213 116.33 76.8045 115.895 76.8045 115.445C76.8045 114.773 76.6192 114.273 76.2485 113.945C75.8854 113.616 75.3975 113.452 74.7848 113.452C74.1418 113.452 73.5177 113.601 72.9126 113.899C72.3074 114.196 71.6758 114.62 71.0177 115.17L69.1114 112.891C69.9284 112.189 70.6054 111.692 71.1425 111.402C71.6796 111.112 72.2658 110.891 72.9012 110.738C73.5366 110.578 74.2477 110.498 75.0344 110.498C76.0707 110.498 76.986 110.688 77.7803 111.07C78.5746 111.452 79.1911 111.986 79.6298 112.673C80.0686 113.361 80.2879 114.147 80.2879 115.032C80.2879 115.804 80.1518 116.529 79.8794 117.208C79.6147 117.88 79.1986 118.571 78.6313 119.281C78.0715 119.991 77.0806 121.003 75.6585 122.316L73.5253 124.343V124.503H80.7531V127.481Z" fill="white"/>
<path d="M98.3065 127.481H93.8359L86.6194 114.815H86.5173C86.661 117.052 86.7329 118.647 86.7329 119.602V127.481H83.5898V110.738H88.0264L95.2315 123.278H95.311C95.1975 121.102 95.1408 119.564 95.1408 118.663V110.738H98.3065V127.481Z" fill="white"/>
<path d="M117.551 119.086C117.551 121.858 116.87 123.988 115.508 125.477C114.147 126.965 112.195 127.71 109.653 127.71C107.112 127.71 105.16 126.965 103.798 125.477C102.437 123.988 101.756 121.85 101.756 119.064C101.756 116.277 102.437 114.151 103.798 112.685C105.167 111.211 107.127 110.475 109.676 110.475C112.225 110.475 114.173 111.215 115.519 112.696C116.873 114.177 117.551 116.307 117.551 119.086ZM105.444 119.086C105.444 120.957 105.795 122.366 106.499 123.312C107.202 124.259 108.254 124.732 109.653 124.732C112.46 124.732 113.863 122.85 113.863 119.086C113.863 115.315 112.467 113.429 109.676 113.429C108.276 113.429 107.221 113.906 106.51 114.861C105.799 115.807 105.444 117.216 105.444 119.086Z" fill="white"/>
<path d="M127.388 127.481H123.871V113.693H119.366V110.738H131.893V113.693H127.388V127.481Z" fill="white"/>
<path d="M144 127.481H134.446V110.738H144V113.647H137.963V117.323H143.58V120.232H137.963V124.549H144V127.481Z" fill="white"/>
</svg>
