<svg width="235" height="53" viewBox="0 0 235 53" fill="none" xmlns="http://www.w3.org/2000/svg">
<g clip-path="url(#clip0_485_877)">
<path fill-rule="evenodd" clip-rule="evenodd" d="M33.2536 37.4864C33.2536 45.7362 26.7522 51.7189 16.4252 51.7189C10.4371 51.5513 4.76241 48.9775 0.658203 44.5682L4.11196 40.7082C7.34457 43.8185 11.1481 46.8414 16.3569 46.8414C22.1426 46.8414 28.3806 43.5625 28.3806 37.6753C28.3806 32.7856 24.5348 29.596 16.4534 27.081C7.24406 24.2369 2.56601 20.3771 2.56601 13.1206C2.56601 5.93926 8.58091 0.0458984 17.151 0.0458984C23.5519 0.0458984 27.5565 2.80262 31.4544 6.32525L28.059 10.1343C24.6414 7.07485 21.3847 5.00071 17.3882 5.00071C12.4307 5.00071 7.53755 8.23079 7.53755 12.8809C7.53755 17.0942 9.93386 19.7778 18.3933 22.3943C26.1412 24.8056 33.2536 28.5438 33.2536 37.4864ZM75.0546 4.80395C75.0546 7.06649 76.8691 8.90067 79.1075 8.90067C80.1825 8.90119 81.2136 8.46976 81.9737 7.70135C82.734 6.93296 83.1607 5.89062 83.1602 4.80395C83.1602 2.5414 81.3457 0.707241 79.1075 0.707241C76.8691 0.707241 75.0546 2.5414 75.0546 4.80395ZM114.274 1.5469H109.389V50.9098H114.274V1.5469ZM125.675 49.2666C125.675 49.2666 128.683 51.7349 138.702 51.7349L138.696 51.733C148.587 51.733 156.614 44.4235 156.614 34.4368C156.614 24.4499 148.593 17.1691 138.702 17.1691C135.897 17.0931 133.111 17.6686 130.561 18.8511V1.5469H125.675V49.2666ZM162.318 34.48C162.317 44.4712 170.332 52.5713 180.22 52.5725C190.108 52.5725 198.125 44.4731 198.126 34.4814C198.126 24.4902 190.11 16.3908 180.222 16.3904C170.335 16.3901 162.319 24.489 162.318 34.48ZM227.748 50.925H234.125L220.026 33.9559L233.174 18.0412H226.833L216.848 30.1287L206.813 18.0412H200.436L213.678 33.9781L199.678 50.925H206.017L216.854 37.8056L227.748 50.925ZM180.25 21.2748C174.977 21.274 170.223 24.4835 168.204 29.4064C166.186 34.3296 167.301 39.9965 171.03 43.7645C174.759 47.5326 180.367 48.6597 185.238 46.62C190.11 44.5803 193.286 39.7758 193.285 34.4471C193.284 27.1726 187.449 21.2759 180.25 21.2748ZM138.702 22.1159C135.784 22.1573 132.947 23.0863 130.56 24.7815V45.1557C133.09 46.3985 135.893 46.965 138.702 46.8015C145.895 46.8015 151.729 41.7222 151.729 34.4588C151.729 27.1953 145.889 22.1139 138.696 22.1139L138.702 22.1159ZM93.1076 1.54745H97.9927V50.9102H93.1076V1.54745ZM62.9786 50.9141L45.8907 33.6463L61.3602 18.0039H68.2677L52.7983 33.6463L69.8862 50.9141H62.9786ZM40.9903 1.5469V50.9098H45.8754V1.5469H40.9903ZM76.8365 50.9141H81.7216V18.0039H76.8365V50.9141Z" fill="#A4A4A4"/>
</g>
<defs>
<clipPath id="clip0_485_877">
<rect width="233.906" height="52.5263" fill="white" transform="translate(0.658203 0.0458984)"/>
</clipPath>
</defs>
</svg>
