<svg width="157" height="118" viewBox="0 0 157 118" fill="none" xmlns="http://www.w3.org/2000/svg">
<g clip-path="url(#clip0_485_879)">
<path fill-rule="evenodd" clip-rule="evenodd" d="M127.19 5.00377L108.827 56.5023L90.9379 7.11632C86.8454 7.24055 82.7544 7.31421 78.5126 7.31421C74.3461 7.31421 70.2537 7.23908 66.1627 7.18998L48.1981 56.5259L29.7849 4.95319C18.907 3.88416 8.95331 2.4424 0.169922 0.653468L46.8513 116.55C47.1757 116.476 47.4503 116.476 47.6499 116.476C49.7701 112.922 71.6758 72.7323 71.6758 72.7323L71.801 72.3341C72.4498 71.8126 73.2478 71.3402 74.1711 70.9419C79.1115 68.9035 79.4605 68.382 75.7437 68.9035C74.5354 69.1015 73.3705 69.5053 72.2999 70.0973L76.4663 53.3207L66.0621 34.2577L92.9333 55.558C92.9333 55.558 92.1347 66.7419 94.1317 66.7419C95.9783 66.7419 95.1289 71.7369 94.9796 74.2983C94.3308 73.9001 93.4568 73.4537 92.609 72.7814C91.486 71.8617 90.9625 70.9419 90.7619 70.4695C90.9615 71.1909 91.4106 72.6321 92.084 73.9001C92.7327 75.0924 94.6537 76.6584 95.5775 77.4539C97.0997 82.3748 101.066 93.5592 104.758 103.825C104.235 103.502 103.561 103.103 102.837 102.78C99.1943 100.94 91.8838 94.23 90.9615 93.3854C93.2823 97.0143 94.0548 98.3063 96.3756 100.742C98.2966 102.854 103.91 107.055 106.605 109.018L106.679 109.092C107.802 112.174 108.851 115.132 109.773 117.643L156.928 0.627441C148.123 2.4424 138.167 3.88416 127.19 5.00377Z" fill="#A4A4A4"/>
</g>
<defs>
<clipPath id="clip0_485_879">
<rect width="156.758" height="117.363" fill="white" transform="translate(0.169922 0.627441)"/>
</clipPath>
</defs>
</svg>
