<svg width="18" height="24" viewBox="0 0 18 24" fill="none" xmlns="http://www.w3.org/2000/svg">
<path d="M8.69259 0.0703125C6.55509 0.445312 4.93791 2.10469 4.61916 4.25156C4.59103 4.43438 4.56759 4.82344 4.56759 5.10469V5.625H2.45822H0.906982V14.7907V24H9.48947H17.8616V14.8125V5.625H16.5207H14.4113V5.10469C14.4113 3.97969 14.1535 3.07969 13.577 2.20313C12.527 0.609377 10.5442 -0.253124 8.69259 0.0703125ZM10.3567 1.51406C11.4113 1.80938 12.3067 2.58281 12.7238 3.5625C12.916 4.01719 12.9629 4.275 12.991 4.95469L13.0192 5.625H9.48947H5.95978L5.98791 4.95469C6.01603 4.275 6.06291 4.01719 6.25509 3.5625C6.68165 2.55938 7.68478 1.71094 8.69259 1.50469C8.83322 1.47656 8.99259 1.44375 9.04416 1.43437C9.21759 1.39219 10.1176 1.44844 10.3567 1.51406ZM4.56759 8.4375V9.84375H5.27072H5.97384V8.4375V7.03125H9.48947H13.0051V8.4375V9.84375H13.7082H14.4113V8.4375V7.03125H15.8176H16.5207V14.8125V22.5938H9.48947H2.30233V14.8125V7.03125H3.16134H4.56759V8.4375Z" fill="#40515A"/>
<path d="M8.69259 0.0703125C6.55509 0.445312 4.93791 2.10469 4.61916 4.25156C4.59103 4.43438 4.56759 4.82344 4.56759 5.10469V5.625H2.45822H0.906982V14.7907V24H9.48947H17.8616V14.8125V5.625H16.5207H14.4113V5.10469C14.4113 3.97969 14.1535 3.07969 13.577 2.20313C12.527 0.609377 10.5442 -0.253124 8.69259 0.0703125ZM10.3567 1.51406C11.4113 1.80938 12.3067 2.58281 12.7238 3.5625C12.916 4.01719 12.9629 4.275 12.991 4.95469L13.0192 5.625H9.48947H5.95978L5.98791 4.95469C6.01603 4.275 6.06291 4.01719 6.25509 3.5625C6.68165 2.55938 7.68478 1.71094 8.69259 1.50469C8.83322 1.47656 8.99259 1.44375 9.04416 1.43437C9.21759 1.39219 10.1176 1.44844 10.3567 1.51406ZM4.56759 8.4375V9.84375H5.27072H5.97384V8.4375V7.03125H9.48947H13.0051V8.4375V9.84375H13.7082H14.4113V8.4375V7.03125H15.8176H16.5207V14.8125V22.5938H9.48947H2.30233V14.8125V7.03125H3.16134H4.56759V8.4375Z" fill="black" fill-opacity="0.2"/>
</svg>
