<svg width="200" height="42" viewBox="0 0 200 42" fill="none" xmlns="http://www.w3.org/2000/svg">
<path fill-rule="evenodd" clip-rule="evenodd" d="M50.2775 0.218772C48.78 0.89461 47.3309 3.38944 47.3501 5.25798C47.3552 5.76525 47.4073 6.25594 47.4656 6.3486C47.5238 6.44126 48.1564 6.517 48.8713 6.517C49.5864 6.517 50.5015 6.63147 50.9053 6.77124C51.6082 7.01485 51.6502 7.00926 51.8957 6.64037C52.8452 5.21453 53.3289 2.70068 52.8997 1.42369C52.4706 0.146878 51.4625 -0.316245 50.2775 0.218772ZM43.0192 4.1417C42.4077 4.40363 41.3099 5.53892 40.8819 6.35192C40.2368 7.57708 40.0675 8.32621 40.1869 9.42818L40.3038 10.5069L41.4837 10.4179C42.2766 10.3581 42.9508 10.4165 43.5386 10.5963C44.3459 10.8428 44.4314 10.8406 44.6453 10.5661C45.1141 9.96494 45.6401 8.31749 45.7295 7.17085C45.9223 4.69853 44.7574 3.39659 43.0192 4.1417ZM55.6357 4.15113C55.538 4.18795 55.2471 4.26333 54.9895 4.31882C54.6262 4.397 54.4949 4.55544 54.4055 5.02363C54.3421 5.35588 54.0265 6.14182 53.7043 6.77037C53.3822 7.39909 53.1586 7.95243 53.2073 8.00042C53.2562 8.04823 53.5542 8.0875 53.8696 8.0875C54.1852 8.0875 54.9808 8.25048 55.6377 8.44976L56.832 8.81202L57.3505 8.32412C57.6357 8.05591 58.077 7.41899 58.3311 6.90875C58.8683 5.83086 58.776 5.10931 58.0333 4.57813C57.6205 4.28305 56.0357 4.00088 55.6357 4.15113ZM36.221 7.88333C34.499 8.38519 32.8016 11.2606 32.8016 13.6757C32.8016 15.5118 33.4393 16.4635 34.6697 16.4635C36.4399 16.4635 38.3491 13.8748 38.6112 11.1191C38.819 8.93469 37.7195 7.44656 36.221 7.88333ZM47.7518 8.22779C47.4334 8.32342 47.2552 8.59529 47.0185 9.34669C46.8465 9.8927 46.4973 10.6886 46.2425 11.1154L45.7794 11.8916L46.9627 12.094C47.6134 12.2053 48.4173 12.4078 48.7489 12.5439C49.2793 12.7615 49.4034 12.7582 49.7783 12.517C50.3226 12.1668 51.2251 10.8338 51.3765 10.1565C51.5192 9.51857 51.2256 8.76927 50.7091 8.45238C50.2693 8.18277 48.3802 8.03916 47.7518 8.22779ZM53.0552 10.1136C53.0503 10.7636 52.498 11.9527 51.7975 12.821C51.127 13.6523 51.1889 13.7556 52.8315 14.5498C54.7551 15.4797 57.2981 15.5068 58.3849 14.6088C58.8084 14.2589 58.9232 14.0242 58.9232 13.5076C58.9232 11.9221 56.4073 9.99879 53.9613 9.71436C53.0611 9.60966 53.0591 9.61036 53.0552 10.1136ZM40.7312 12.0687C40.2905 12.1717 40.165 12.349 39.821 13.353C39.6014 13.9936 39.2527 14.7866 39.0461 15.115C38.6096 15.8085 38.6821 15.94 39.5004 15.94C39.8294 15.94 40.5768 16.0983 41.1612 16.2917C42.1483 16.6182 42.2551 16.6232 42.6604 16.3625C42.9003 16.2081 43.3426 15.717 43.6433 15.2714C44.0991 14.5955 44.1812 14.3188 44.1376 13.604C44.0962 12.9255 43.9928 12.6805 43.6411 12.4275C43.1532 12.0764 41.5452 11.8782 40.7312 12.0687ZM45.7348 14.6575C45.564 15.2283 45.1136 16.0837 44.713 16.5979C44.3189 17.1038 43.9965 17.5519 43.9965 17.594C43.9965 17.636 44.3592 17.8791 44.8026 18.1342C47.762 19.8373 51.6376 19.511 51.6376 17.5587C51.6376 16.7696 51.2786 16.1351 50.3821 15.3398C49.4613 14.5228 48.0319 13.8643 46.8978 13.7347L46.0401 13.6366L45.7348 14.6575ZM68.6077 16.815C67.7053 17.0073 67.0006 17.458 66.151 18.3858C65.359 19.251 64.5947 20.6077 64.3669 21.5532C64.2605 21.9948 64.3008 22.0285 65.1518 22.2077C66.1686 22.4218 66.9125 22.7598 67.7944 23.4088L68.4024 23.8562L69.0167 23.1701C69.3546 22.7927 69.8791 21.9734 70.1823 21.3495C70.6263 20.4359 70.7342 19.989 70.7369 19.0509C70.7417 17.3027 69.9957 16.5192 68.6077 16.815ZM18.1389 17.2299C17.2893 17.5934 15.8158 19.3048 15.3901 20.4224C14.6087 22.4731 14.7482 24.6881 15.719 25.6412C16.9991 26.8985 19.6703 25.0348 20.5369 22.2798C21.3985 19.54 20.6362 16.9565 18.9772 16.9939C18.8107 16.9977 18.4335 17.104 18.1389 17.2299ZM36.578 17.867C35.7308 18.2909 35.4203 18.9729 35.6716 19.8574C35.8896 20.624 37.1834 21.8195 38.4698 22.4426C39.4423 22.9138 39.8409 23.0022 41.2241 23.0542C43.0379 23.1223 43.872 22.8494 44.3301 22.0374C44.976 20.893 43.7209 19.1477 41.5457 18.1651C39.9162 17.4291 37.7174 17.2971 36.578 17.867ZM32.1796 19.0948C31.2023 19.6745 29.8765 20.4282 29.2336 20.7697L28.0643 21.3909L28.2486 22.1118C28.3499 22.5084 28.4483 22.8577 28.4674 22.8883C28.4864 22.919 28.8816 22.6593 29.3457 22.3114C30.8704 21.1686 31.5119 20.9213 32.9448 20.9248L34.2431 20.9278L34.1007 20.4844C34.0225 20.2404 33.963 19.5892 33.9687 19.0374C33.9742 18.4856 33.9739 18.0356 33.9678 18.0375C33.9616 18.0395 33.157 18.5151 32.1796 19.0948ZM59.6339 18.3888C58.199 19.0421 56.5448 21.1745 56.1843 22.8356C56.0702 23.361 56.0718 23.3622 57.1611 23.5655C57.8676 23.6973 58.5964 23.9936 59.229 24.4059L60.2058 25.0428L60.7279 24.5518C61.4394 23.8822 62.4135 21.9153 62.5633 20.8449C62.8693 18.66 61.5211 17.5297 59.6339 18.3888ZM52.0223 19.9373C51.6964 20.2137 51.0762 20.5372 50.6442 20.6559C49.978 20.8391 49.7513 21.03 49.1505 21.9135C47.0334 25.0268 47.7273 28.162 50.3782 27.4611C51.4318 27.1825 53.0964 25.5984 53.7904 24.2145C54.5731 22.6531 54.6954 20.9991 54.0924 20.128C53.527 19.3112 52.8354 19.2475 52.0223 19.9373ZM22.8987 21.4722C22.6088 21.5272 22.4489 21.7425 22.3034 22.273C22.1941 22.6719 21.8531 23.4716 21.5459 24.0499C21.2386 24.6282 20.9632 25.1507 20.9339 25.211C20.9045 25.2716 21.3038 25.3739 21.8211 25.4388C22.3384 25.5035 23.2015 25.7047 23.739 25.8857L24.7163 26.2149L25.3978 25.5709C27.6133 23.4767 27.0166 21.304 24.2453 21.3733C23.7225 21.3864 23.1165 21.4309 22.8987 21.4722ZM71.0981 23.1661C70.7678 23.6547 70.2523 24.285 69.9523 24.5668C69.6525 24.8486 69.4073 25.1306 69.4073 25.1932C69.4073 25.2559 69.7295 25.4115 70.1234 25.5393C70.5172 25.6668 71.2943 26.0651 71.8501 26.424L72.8607 27.0765L73.5006 26.7559C74.4973 26.2567 75.4491 25.1233 75.4491 24.4357C75.4491 23.4252 74.3587 22.6325 72.6571 22.4056L71.6986 22.2779L71.0981 23.1661ZM32.2674 22.5595C31.377 22.8256 30.7353 23.2539 29.858 24.1682C28.9041 25.1624 28.3341 26.1685 27.9803 27.4834C27.7793 28.2299 27.7981 28.377 28.2148 29.3156C28.464 29.877 28.7158 30.4736 28.7744 30.6417C28.9228 31.0667 30.0018 31.042 30.9486 30.5919C31.3594 30.3967 32.1087 29.8079 32.6136 29.2837C34.897 26.9128 35.3791 23.2362 33.4912 22.5899C32.8615 22.3744 32.8855 22.3749 32.2674 22.5595ZM63.0921 24.1546C62.9249 24.4722 62.3884 25.1472 61.8998 25.6545L61.0115 26.5767L61.4893 26.7552C61.7521 26.8533 62.027 26.9335 62.1 26.9335C62.1732 26.9335 62.7829 27.2592 63.455 27.6574L64.677 28.381L65.452 27.9774C67.5623 26.8779 67.8326 25.1252 66.0296 24.2281C65.5685 23.9986 64.7874 23.7583 64.2937 23.6939C63.4122 23.5791 63.391 23.5872 63.0921 24.1546ZM54.8939 25.6485C54.6813 26.0197 54.1816 26.67 53.7832 27.0937C53.385 27.5174 53.079 27.8786 53.1036 27.8964C53.1279 27.9142 53.6008 28.1292 54.1543 28.3742C54.7078 28.6194 55.4591 29.0192 55.8241 29.2626L56.4876 29.7055L57.339 29.2818C60.1232 27.8963 59.4794 25.3473 56.2731 25.0619L55.2802 24.9734L54.8939 25.6485ZM45.6847 26.7025C44.1218 26.8948 40.1327 27.4864 39.8589 27.5663C39.5752 27.6492 39.5877 27.6944 39.9767 27.9948C40.2158 28.1796 40.5899 28.6927 40.8078 29.1347L41.204 29.9384L42.1115 29.8112C42.6109 29.7414 44.0721 29.5561 45.3591 29.3994C46.646 29.2429 47.7577 29.057 47.8295 28.9864C47.9015 28.9157 47.755 28.6995 47.5043 28.5058C47.2536 28.3121 46.8744 27.8006 46.6617 27.3691C46.449 26.9376 46.262 26.5962 46.2464 26.6107C46.2306 26.625 45.9779 26.6664 45.6847 26.7025ZM68.5567 27.1834C68.2855 27.7678 67.2984 28.8302 66.76 29.1172C65.7615 29.6496 65.7677 29.6276 66.369 30.4858C67.4877 32.0825 69.1187 32.9074 71.2134 32.9355C72.4161 32.9517 72.6277 32.9054 73.0254 32.5395C73.5777 32.031 73.6621 31.5983 73.3926 30.6595C72.9936 29.2703 71.3936 27.7668 69.6035 27.099L68.7445 26.7784L68.5567 27.1834ZM19.5231 27.103C16.696 27.7626 17.3232 30.4933 20.6757 32.1211C21.9768 32.7528 22.1049 32.7793 23.849 32.7793C25.8515 32.7793 26.419 32.555 26.9109 31.5693C27.1174 31.1554 27.1094 30.9821 26.853 30.323C26.2842 28.8602 24.1557 27.4698 21.9467 27.1178C20.6663 26.9138 20.3427 26.9117 19.5231 27.103ZM12.1886 28.2658C10.7715 28.792 7.81281 29.7739 5.6138 30.4476C3.41479 31.1214 1.33572 31.7677 0.993654 31.8837C-0.1923 32.2865 -0.35827 33.724 0.721421 34.2405C1.15429 34.4475 1.37055 34.4407 2.30755 34.1896C4.39532 33.6305 9.63972 31.9509 12.8406 30.8163L16.0692 29.6718L16.1868 27.6598L15.5443 27.4712C15.1909 27.3675 14.871 27.2885 14.8335 27.2958C14.796 27.3031 13.6058 27.7396 12.1886 28.2658ZM35.0418 28.9242C34.7927 29.3415 34.2392 30.0365 33.8114 30.4686L33.034 31.2542L34.0032 31.6485C34.5363 31.8656 35.3597 32.2989 35.8329 32.6118L36.6933 33.1803L37.4059 32.8341C38.5135 32.2959 39.3764 31.2571 39.3764 30.4619C39.3764 30.0997 39.2598 29.6397 39.1173 29.4401C38.7923 28.9843 37.4146 28.407 36.325 28.2699C35.4958 28.1655 35.4939 28.1666 35.0418 28.9242ZM60.1983 28.9494C59.704 29.6381 58.5141 30.6418 57.9787 30.8217C57.7653 30.8935 58.3346 32.1031 58.8706 32.7165C59.3249 33.2365 61.2101 34.1027 62.252 34.27C63.5422 34.4773 64.2914 34.343 64.8918 33.7966C65.9534 32.8304 64.996 30.6635 62.8915 29.2699C62.2955 28.8754 61.5687 28.4705 61.2764 28.3704C60.7719 28.1978 60.7165 28.2276 60.1983 28.9494ZM50.2188 29.3833C49.4712 29.5528 48.7944 30.2742 48.7944 30.9017C48.7944 32.1828 50.4264 34.0873 52.3007 34.9935C53.7916 35.7142 55.6947 35.8641 56.5591 35.3289C57.2777 34.8838 57.4694 34.0697 57.0742 33.141C56.062 30.7621 52.5737 28.8501 50.2188 29.3833ZM29.6629 32.9723C27.6066 33.9682 29.4054 37.4056 32.7127 38.8002C33.9216 39.3101 35.759 39.4544 36.4664 39.0951C36.7618 38.9452 37.1084 38.6983 37.2367 38.5463C37.5817 38.1382 37.5203 37.0561 37.1074 36.2611C36.712 35.5001 35.3866 34.2063 34.4009 33.6192C32.9537 32.7573 30.7328 32.454 29.6629 32.9723ZM16.257 34.4653C13.2921 35.6938 7.71027 38.3371 6.00633 39.3197C5.48905 39.6179 4.97817 40.0512 4.87084 40.2826C4.6011 40.8639 4.96484 41.6765 5.61291 41.9402C6.07954 42.13 6.45093 41.9798 10.9015 39.8027C13.5343 38.5147 17.3787 36.8029 19.4444 35.9985L23.2002 34.536L22.1296 34.3215C21.5407 34.2036 20.6339 33.916 20.1147 33.6825L19.1704 33.2579L16.257 34.4653Z" fill="#F8F8F8"/>
<path d="M102.291 17.5918C101.433 17.5918 100.609 17.4569 99.8181 17.1871C99.038 16.9066 98.4336 16.5505 98.005 16.1189L98.483 15.1962C98.8896 15.5847 99.4335 15.9138 100.115 16.1836C100.807 16.4426 101.532 16.5721 102.291 16.5721C103.016 16.5721 103.604 16.4857 104.054 16.3131C104.516 16.1296 104.851 15.8869 105.06 15.5847C105.279 15.2826 105.389 14.9481 105.389 14.5812C105.389 14.1388 105.257 13.7827 104.994 13.5129C104.741 13.2431 104.406 13.0327 103.988 12.8816C103.571 12.7198 103.109 12.5795 102.604 12.4608C102.098 12.3421 101.593 12.218 101.087 12.0885C100.582 11.9482 100.115 11.7648 99.6863 11.5382C99.2687 11.3116 98.9281 11.0148 98.6644 10.648C98.4116 10.2703 98.2853 9.7793 98.2853 9.17502C98.2853 8.6139 98.4336 8.10134 98.7303 7.63734C99.038 7.16254 99.505 6.78487 100.131 6.50431C100.758 6.21296 101.56 6.06729 102.538 6.06729C103.186 6.06729 103.829 6.15901 104.466 6.34245C105.104 6.5151 105.653 6.75789 106.115 7.07082L105.702 8.0258C105.208 7.70208 104.681 7.46468 104.12 7.31361C103.571 7.16254 103.038 7.08701 102.521 7.08701C101.829 7.08701 101.258 7.17873 100.807 7.36217C100.357 7.54562 100.021 7.7938 99.8017 8.10673C99.5929 8.40887 99.4885 8.75418 99.4885 9.14264C99.4885 9.58506 99.6149 9.94116 99.8676 10.2109C100.131 10.4807 100.472 10.6911 100.89 10.8422C101.318 10.9933 101.785 11.1281 102.291 11.2468C102.796 11.3655 103.296 11.495 103.79 11.6353C104.296 11.7756 104.757 11.959 105.175 12.1856C105.604 12.4014 105.944 12.6928 106.197 13.0597C106.461 13.4266 106.593 13.9068 106.593 14.5002C106.593 15.0506 106.439 15.5631 106.131 16.0379C105.823 16.5019 105.351 16.8796 104.714 17.1709C104.087 17.4515 103.28 17.5918 102.291 17.5918Z" fill="#F8F8F8"/>
<path d="M109.25 17.4947V6.1644H113.569C114.547 6.1644 115.387 6.32087 116.09 6.6338C116.794 6.93594 117.332 7.37836 117.706 7.96106C118.09 8.53297 118.283 9.22897 118.283 10.0491C118.283 10.8476 118.09 11.5382 117.706 12.1209C117.332 12.6928 116.794 13.1352 116.09 13.4481C115.387 13.7611 114.547 13.9175 113.569 13.9175H109.926L110.47 13.351V17.4947H109.25ZM110.47 13.4481L109.926 12.8654H113.536C114.689 12.8654 115.563 12.6227 116.156 12.1371C116.761 11.6407 117.063 10.9447 117.063 10.0491C117.063 9.14264 116.761 8.44125 116.156 7.94487C115.563 7.4485 114.689 7.20031 113.536 7.20031H109.926L110.47 6.6338V13.4481Z" fill="#F8F8F8"/>
<path d="M118.494 17.4947L123.769 6.1644H124.972L130.247 17.4947H128.961L124.115 6.8604H124.61L119.764 17.4947H118.494ZM120.571 14.4679L120.934 13.4967H127.642L128.005 14.4679H120.571Z" fill="#F8F8F8"/>
<path d="M136.469 17.4947V6.1644H140.788C141.766 6.1644 142.606 6.32087 143.309 6.6338C144.013 6.93594 144.551 7.37836 144.925 7.96106C145.309 8.53297 145.502 9.22897 145.502 10.0491C145.502 10.8476 145.309 11.5382 144.925 12.1209C144.551 12.6928 144.013 13.1352 143.309 13.4481C142.606 13.7503 141.766 13.9014 140.788 13.9014H137.145L137.689 13.351V17.4947H136.469ZM144.348 17.4947L141.381 13.3834H142.7L145.683 17.4947H144.348ZM137.689 13.4481L137.145 12.8816H140.755C141.908 12.8816 142.782 12.6334 143.375 12.1371C143.98 11.6407 144.282 10.9447 144.282 10.0491C144.282 9.14264 143.98 8.44125 143.375 7.94487C142.782 7.4485 141.908 7.20031 140.755 7.20031H137.145L137.689 6.6338V13.4481Z" fill="#F8F8F8"/>
<path d="M153.424 17.5918C152.556 17.5918 151.748 17.4515 151.001 17.1709C150.265 16.8796 149.622 16.4749 149.073 15.957C148.534 15.4282 148.111 14.8186 147.804 14.128C147.507 13.4266 147.359 12.6604 147.359 11.8295C147.359 10.9986 147.507 10.2379 147.804 9.5473C148.111 8.8459 148.534 8.23622 149.073 7.71827C149.622 7.18952 150.265 6.78487 151.001 6.50431C151.737 6.21296 152.545 6.06729 153.424 6.06729C154.292 6.06729 155.094 6.21296 155.831 6.50431C156.567 6.78487 157.204 7.18413 157.743 7.70208C158.292 8.22004 158.715 8.82971 159.012 9.53111C159.32 10.2325 159.473 10.9986 159.473 11.8295C159.473 12.6604 159.32 13.4266 159.012 14.128C158.715 14.8294 158.292 15.439 157.743 15.957C157.204 16.4749 156.567 16.8796 155.831 17.1709C155.094 17.4515 154.292 17.5918 153.424 17.5918ZM153.424 16.5235C154.116 16.5235 154.754 16.4102 155.336 16.1836C155.93 15.9462 156.441 15.6171 156.869 15.1962C157.309 14.7646 157.649 14.2682 157.891 13.7071C158.133 13.1352 158.254 12.5094 158.254 11.8295C158.254 11.1497 158.133 10.5293 157.891 9.96813C157.649 9.39623 157.309 8.89985 156.869 8.47901C156.441 8.04739 155.93 7.71827 155.336 7.49166C154.754 7.25427 154.116 7.13557 153.424 7.13557C152.732 7.13557 152.089 7.25427 151.496 7.49166C150.902 7.71827 150.386 8.04739 149.946 8.47901C149.518 8.89985 149.177 9.39623 148.924 9.96813C148.683 10.5293 148.562 11.1497 148.562 11.8295C148.562 12.4986 148.683 13.119 148.924 13.6909C149.177 14.2628 149.518 14.7646 149.946 15.1962C150.386 15.6171 150.902 15.9462 151.496 16.1836C152.089 16.4102 152.732 16.5235 153.424 16.5235Z" fill="#F8F8F8"/>
<path d="M167.251 17.5918C166.383 17.5918 165.575 17.4515 164.828 17.1709C164.092 16.8796 163.449 16.4749 162.9 15.957C162.361 15.4282 161.938 14.8186 161.63 14.128C161.334 13.4266 161.185 12.6604 161.185 11.8295C161.185 10.9986 161.334 10.2379 161.63 9.5473C161.938 8.8459 162.361 8.23622 162.9 7.71827C163.449 7.18952 164.092 6.78487 164.828 6.50431C165.564 6.21296 166.372 6.06729 167.251 6.06729C168.119 6.06729 168.921 6.21296 169.657 6.50431C170.394 6.78487 171.031 7.18413 171.569 7.70208C172.119 8.22004 172.542 8.82971 172.839 9.53111C173.146 10.2325 173.3 10.9986 173.3 11.8295C173.3 12.6604 173.146 13.4266 172.839 14.128C172.542 14.8294 172.119 15.439 171.569 15.957C171.031 16.4749 170.394 16.8796 169.657 17.1709C168.921 17.4515 168.119 17.5918 167.251 17.5918ZM167.251 16.5235C167.943 16.5235 168.581 16.4102 169.163 16.1836C169.756 15.9462 170.267 15.6171 170.696 15.1962C171.135 14.7646 171.476 14.2682 171.718 13.7071C171.96 13.1352 172.08 12.5094 172.08 11.8295C172.08 11.1497 171.96 10.5293 171.718 9.96813C171.476 9.39623 171.135 8.89985 170.696 8.47901C170.267 8.04739 169.756 7.71827 169.163 7.49166C168.581 7.25427 167.943 7.13557 167.251 7.13557C166.559 7.13557 165.916 7.25427 165.323 7.49166C164.729 7.71827 164.213 8.04739 163.773 8.47901C163.345 8.89985 163.004 9.39623 162.751 9.96813C162.509 10.5293 162.389 11.1497 162.389 11.8295C162.389 12.4986 162.509 13.119 162.751 13.6909C163.004 14.2628 163.345 14.7646 163.773 15.1962C164.213 15.6171 164.729 15.9462 165.323 16.1836C165.916 16.4102 166.559 16.5235 167.251 16.5235Z" fill="#F8F8F8"/>
<path d="M176.034 17.4947V6.1644H177.04L182.314 15.002H181.787L187.012 6.1644H188.017V17.4947H186.847V7.96106H187.127L182.314 16.0541H181.737L176.891 7.96106H177.204V17.4947H176.034Z" fill="#F8F8F8"/>
<path d="M99.1094 37.1492V25.819H100.115L105.389 34.6566H104.862L110.087 25.819H111.092V37.1492H109.922V27.6156H110.202L105.389 35.7087H104.812L99.9665 27.6156H100.28V37.1492H99.1094Z" fill="#F8F8F8"/>
<path d="M113.006 37.1492L118.28 25.819H119.483L124.758 37.1492H123.472L118.626 26.515H119.121L114.275 37.1492H113.006ZM115.082 34.1224L115.445 33.1513H122.154L122.516 34.1224H115.082Z" fill="#F8F8F8"/>
<path d="M129.848 37.2463C128.99 37.2463 128.166 37.1115 127.375 36.8417C126.595 36.5611 125.991 36.205 125.562 35.7734L126.04 34.8508C126.447 35.2393 126.991 35.5684 127.672 35.8381C128.364 36.0971 129.089 36.2266 129.848 36.2266C130.573 36.2266 131.161 36.1403 131.611 35.9676C132.073 35.7842 132.408 35.5414 132.617 35.2393C132.836 34.9371 132.946 34.6026 132.946 34.2357C132.946 33.7933 132.814 33.4372 132.551 33.1674C132.298 32.8977 131.963 32.6873 131.545 32.5362C131.128 32.3743 130.666 32.234 130.161 32.1153C129.655 31.9966 129.15 31.8726 128.644 31.7431C128.139 31.6028 127.672 31.4193 127.243 31.1927C126.826 30.9661 126.485 30.6694 126.221 30.3025C125.969 29.9248 125.842 29.4338 125.842 28.8296C125.842 28.2684 125.991 27.7559 126.287 27.2919C126.595 26.8171 127.062 26.4394 127.688 26.1589C128.315 25.8675 129.117 25.7218 130.095 25.7218C130.743 25.7218 131.386 25.8136 132.023 25.997C132.661 26.1697 133.21 26.4124 133.672 26.7254L133.26 27.6804C132.765 27.3566 132.238 27.1192 131.677 26.9682C131.128 26.8171 130.595 26.7416 130.078 26.7416C129.386 26.7416 128.815 26.8333 128.364 27.0167C127.914 27.2002 127.578 27.4484 127.359 27.7613C127.15 28.0634 127.046 28.4087 127.046 28.7972C127.046 29.2396 127.172 29.5957 127.425 29.8655C127.688 30.1352 128.029 30.3457 128.447 30.4967C128.875 30.6478 129.342 30.7827 129.848 30.9014C130.353 31.0201 130.853 31.1496 131.348 31.2899C131.853 31.4301 132.315 31.6136 132.732 31.8402C133.161 32.056 133.501 32.3473 133.754 32.7142C134.018 33.0811 134.15 33.5613 134.15 34.1548C134.15 34.7051 133.996 35.2177 133.688 35.6925C133.38 36.1565 132.908 36.5341 132.271 36.8255C131.644 37.1061 130.837 37.2463 129.848 37.2463Z" fill="#F8F8F8"/>
<path d="M139.988 37.2463C139.131 37.2463 138.307 37.1115 137.516 36.8417C136.736 36.5611 136.131 36.205 135.703 35.7734L136.181 34.8508C136.587 35.2393 137.131 35.5684 137.813 35.8381C138.505 36.0971 139.23 36.2266 139.988 36.2266C140.714 36.2266 141.301 36.1403 141.752 35.9676C142.214 35.7842 142.549 35.5414 142.757 35.2393C142.977 34.9371 143.087 34.6026 143.087 34.2357C143.087 33.7933 142.955 33.4372 142.692 33.1674C142.439 32.8977 142.104 32.6873 141.686 32.5362C141.268 32.3743 140.807 32.234 140.302 32.1153C139.796 31.9966 139.291 31.8726 138.785 31.7431C138.28 31.6028 137.813 31.4193 137.384 31.1927C136.967 30.9661 136.626 30.6694 136.362 30.3025C136.109 29.9248 135.983 29.4338 135.983 28.8296C135.983 28.2684 136.131 27.7559 136.428 27.2919C136.736 26.8171 137.203 26.4394 137.829 26.1589C138.455 25.8675 139.258 25.7218 140.236 25.7218C140.884 25.7218 141.527 25.8136 142.164 25.997C142.801 26.1697 143.351 26.4124 143.812 26.7254L143.4 27.6804C142.906 27.3566 142.378 27.1192 141.818 26.9682C141.268 26.8171 140.736 26.7416 140.219 26.7416C139.527 26.7416 138.955 26.8333 138.505 27.0167C138.054 27.2002 137.719 27.4484 137.499 27.7613C137.291 28.0634 137.186 28.4087 137.186 28.7972C137.186 29.2396 137.313 29.5957 137.565 29.8655C137.829 30.1352 138.17 30.3457 138.587 30.4967C139.016 30.6478 139.483 30.7827 139.988 30.9014C140.494 31.0201 140.994 31.1496 141.488 31.2899C141.994 31.4301 142.455 31.6136 142.873 31.8402C143.301 32.056 143.642 32.3473 143.895 32.7142C144.158 33.0811 144.29 33.5613 144.29 34.1548C144.29 34.7051 144.136 35.2177 143.829 35.6925C143.521 36.1565 143.049 36.5341 142.411 36.8255C141.785 37.1061 140.977 37.2463 139.988 37.2463Z" fill="#F8F8F8"/>
<path d="M145.102 37.1492L150.376 25.819H151.58L156.854 37.1492H155.568L150.722 26.515H151.217L146.371 37.1492H145.102ZM147.179 34.1224L147.541 33.1513H154.25L154.612 34.1224H147.179ZM149.915 24.8963L152.173 22.8893H153.739L151.069 24.8963H149.915Z" fill="#F8F8F8"/>
<path d="M163.662 37.2463C162.783 37.2463 161.97 37.1061 161.222 36.8255C160.486 36.5341 159.843 36.1295 159.294 35.6115C158.756 35.0936 158.332 34.4839 158.025 33.7825C157.728 33.0811 157.58 32.315 157.58 31.4841C157.58 30.6532 157.728 29.8871 158.025 29.1857C158.332 28.4843 158.761 27.8746 159.31 27.3566C159.86 26.8387 160.503 26.4394 161.239 26.1589C161.986 25.8675 162.799 25.7218 163.678 25.7218C164.557 25.7218 165.36 25.8567 166.085 26.1265C166.821 26.3963 167.447 26.8063 167.964 27.3566L167.206 28.1174C166.722 27.6426 166.189 27.3027 165.607 27.0977C165.024 26.8926 164.398 26.7901 163.728 26.7901C163.014 26.7901 162.354 26.9088 161.75 27.1462C161.157 27.3728 160.635 27.7019 160.184 28.1336C159.745 28.5544 159.398 29.0508 159.146 29.6227C158.904 30.1838 158.783 30.8043 158.783 31.4841C158.783 32.1531 158.904 32.7736 159.146 33.3455C159.398 33.9174 159.745 34.4192 160.184 34.8508C160.635 35.2716 161.157 35.6007 161.75 35.8381C162.354 36.0648 163.008 36.1781 163.711 36.1781C164.371 36.1781 164.992 36.0809 165.574 35.8867C166.167 35.6925 166.711 35.3634 167.206 34.8994L167.898 35.8058C167.349 36.2806 166.706 36.6421 165.969 36.8902C165.233 37.1276 164.464 37.2463 163.662 37.2463ZM166.728 35.6601V31.4841H167.898V35.8058L166.728 35.6601Z" fill="#F8F8F8"/>
<path d="M172.438 30.8852H178.537V31.9049H172.438V30.8852ZM172.57 36.1133H179.509V37.1492H171.35V25.819H179.262V26.8549H172.57V36.1133Z" fill="#F8F8F8"/>
<path d="M185.557 37.2463C184.7 37.2463 183.876 37.1115 183.085 36.8417C182.305 36.5611 181.7 36.205 181.272 35.7734L181.75 34.8508C182.156 35.2393 182.7 35.5684 183.382 35.8381C184.074 36.0971 184.799 36.2266 185.557 36.2266C186.283 36.2266 186.87 36.1403 187.321 35.9676C187.782 35.7842 188.118 35.5414 188.326 35.2393C188.546 34.9371 188.656 34.6026 188.656 34.2357C188.656 33.7933 188.524 33.4372 188.26 33.1674C188.008 32.8977 187.673 32.6873 187.255 32.5362C186.837 32.3743 186.376 32.234 185.87 32.1153C185.365 31.9966 184.859 31.8726 184.354 31.7431C183.849 31.6028 183.382 31.4193 182.953 31.1927C182.535 30.9661 182.195 30.6694 181.931 30.3025C181.678 29.9248 181.552 29.4338 181.552 28.8296C181.552 28.2684 181.7 27.7559 181.997 27.2919C182.305 26.8171 182.772 26.4394 183.398 26.1589C184.024 25.8675 184.827 25.7218 185.805 25.7218C186.453 25.7218 187.096 25.8136 187.733 25.997C188.37 26.1697 188.92 26.4124 189.381 26.7254L188.969 27.6804C188.475 27.3566 187.947 27.1192 187.387 26.9682C186.837 26.8171 186.304 26.7416 185.788 26.7416C185.096 26.7416 184.524 26.8333 184.074 27.0167C183.623 27.2002 183.288 27.4484 183.068 27.7613C182.86 28.0634 182.755 28.4087 182.755 28.7972C182.755 29.2396 182.882 29.5957 183.134 29.8655C183.398 30.1352 183.739 30.3457 184.156 30.4967C184.585 30.6478 185.052 30.7827 185.557 30.9014C186.063 31.0201 186.563 31.1496 187.057 31.2899C187.563 31.4301 188.024 31.6136 188.442 31.8402C188.87 32.056 189.211 32.3473 189.464 32.7142C189.727 33.0811 189.859 33.5613 189.859 34.1548C189.859 34.7051 189.705 35.2177 189.398 35.6925C189.09 36.1565 188.618 36.5341 187.98 36.8255C187.354 37.1061 186.546 37.2463 185.557 37.2463Z" fill="#F8F8F8"/>
<path d="M195.698 37.2463C194.841 37.2463 194.017 37.1115 193.226 36.8417C192.445 36.5611 191.841 36.205 191.413 35.7734L191.89 34.8508C192.297 35.2393 192.841 35.5684 193.522 35.8381C194.215 36.0971 194.94 36.2266 195.698 36.2266C196.423 36.2266 197.011 36.1403 197.462 35.9676C197.923 35.7842 198.258 35.5414 198.467 35.2393C198.687 34.9371 198.797 34.6026 198.797 34.2357C198.797 33.7933 198.665 33.4372 198.401 33.1674C198.148 32.8977 197.813 32.6873 197.396 32.5362C196.978 32.3743 196.517 32.234 196.011 32.1153C195.506 31.9966 195 31.8726 194.495 31.7431C193.989 31.6028 193.522 31.4193 193.094 31.1927C192.676 30.9661 192.336 30.6694 192.072 30.3025C191.819 29.9248 191.693 29.4338 191.693 28.8296C191.693 28.2684 191.841 27.7559 192.138 27.2919C192.445 26.8171 192.912 26.4394 193.539 26.1589C194.165 25.8675 194.967 25.7218 195.945 25.7218C196.594 25.7218 197.236 25.8136 197.874 25.997C198.511 26.1697 199.06 26.4124 199.522 26.7254L199.11 27.6804C198.615 27.3566 198.088 27.1192 197.528 26.9682C196.978 26.8171 196.445 26.7416 195.929 26.7416C195.236 26.7416 194.665 26.8333 194.215 27.0167C193.764 27.2002 193.429 27.4484 193.209 27.7613C193 28.0634 192.896 28.4087 192.896 28.7972C192.896 29.2396 193.022 29.5957 193.275 29.8655C193.539 30.1352 193.879 30.3457 194.297 30.4967C194.726 30.6478 195.193 30.7827 195.698 30.9014C196.203 31.0201 196.703 31.1496 197.198 31.2899C197.703 31.4301 198.165 31.6136 198.582 31.8402C199.011 32.056 199.352 32.3473 199.604 32.7142C199.868 33.0811 200 33.5613 200 34.1548C200 34.7051 199.846 35.2177 199.538 35.6925C199.231 36.1565 198.758 36.5341 198.121 36.8255C197.495 37.1061 196.687 37.2463 195.698 37.2463Z" fill="#F8F8F8"/>
</svg>
