<svg width="148" height="32" viewBox="0 0 148 32" fill="none" xmlns="http://www.w3.org/2000/svg">
<path fill-rule="evenodd" clip-rule="evenodd" d="M37.2053 0.166683C36.0972 0.681608 35.0248 2.58243 35.039 4.00608C35.0429 4.39257 35.0814 4.76643 35.1245 4.83703C35.1677 4.90763 35.6358 4.96533 36.1648 4.96533C36.6939 4.96533 37.3711 5.05255 37.6699 5.15904C38.1901 5.34464 38.2211 5.34039 38.4029 5.05933C39.1054 3.97298 39.4634 2.05766 39.1458 1.08472C38.8282 0.111907 38.0823 -0.240949 37.2053 0.166683ZM31.8342 3.15558C31.3817 3.35515 30.5694 4.22013 30.2526 4.83956C29.7752 5.77302 29.6499 6.34378 29.7383 7.18337L29.8248 8.00529L30.698 7.93748C31.2847 7.89188 31.7836 7.93642 32.2186 8.07336C32.816 8.26122 32.8792 8.25949 33.0375 8.05036C33.3844 7.59234 33.7737 6.33713 33.8398 5.4635C33.9825 3.57984 33.1205 2.58788 31.8342 3.15558ZM41.1705 3.16276C41.0981 3.19082 40.8829 3.24825 40.6922 3.29053C40.4234 3.35009 40.3262 3.47081 40.2601 3.82753C40.2132 4.08067 39.9796 4.67948 39.7412 5.15838C39.5028 5.63741 39.3374 6.059 39.3734 6.09556C39.4096 6.13199 39.6301 6.1619 39.8635 6.1619C40.0971 6.1619 40.6858 6.28608 41.1719 6.43791L42.0557 6.71392L42.4394 6.34219C42.6504 6.13784 42.977 5.65256 43.165 5.26381C43.5625 4.44256 43.4943 3.8928 42.9446 3.4881C42.6391 3.26328 41.4665 3.04829 41.1705 3.16276ZM26.8036 6.00635C25.5292 6.38872 24.2732 8.57951 24.2732 10.4196C24.2732 11.8185 24.7451 12.5437 25.6556 12.5437C26.9656 12.5437 28.3784 10.5713 28.5723 8.47168C28.726 6.80739 27.9125 5.67357 26.8036 6.00635ZM35.3364 6.2688C35.1007 6.34165 34.9688 6.54879 34.7937 7.12129C34.6664 7.53729 34.408 8.14369 34.2194 8.46889L33.8768 9.06026L34.7524 9.21449C35.2339 9.29931 35.8288 9.45354 36.0742 9.55724C36.4667 9.72303 36.5585 9.7205 36.8359 9.53676C37.2387 9.26993 37.9066 8.25431 38.0186 7.73832C38.1242 7.25224 37.907 6.68135 37.5247 6.43991C37.1993 6.23449 35.8013 6.12507 35.3364 6.2688ZM39.2609 7.70561C39.2572 8.20086 38.8485 9.1068 38.3301 9.76837C37.834 10.4018 37.8798 10.4805 39.0953 11.0856C40.5188 11.7941 42.4006 11.8147 43.2048 11.1305C43.5182 10.8639 43.6031 10.6851 43.6031 10.2915C43.6031 9.08353 41.7414 7.61813 39.9314 7.40142C39.2652 7.32165 39.2638 7.32218 39.2609 7.70561ZM30.1411 9.19521C29.815 9.27365 29.7221 9.40873 29.4675 10.1737C29.305 10.6618 29.047 11.266 28.8941 11.5162C28.5711 12.0446 28.6248 12.1448 29.2303 12.1448C29.4737 12.1448 30.0268 12.2654 30.4593 12.4127C31.1898 12.6614 31.2688 12.6653 31.5687 12.4667C31.7462 12.349 32.0735 11.9749 32.296 11.6353C32.6333 11.1204 32.6941 10.9095 32.6618 10.3649C32.6312 9.84801 32.5547 9.66134 32.2945 9.46856C31.9334 9.20106 30.7435 9.05002 30.1411 9.19521ZM33.8437 11.1676C33.7174 11.6025 33.384 12.2542 33.0876 12.646C32.796 13.0315 32.5574 13.3729 32.5574 13.4049C32.5574 13.437 32.8258 13.6222 33.1539 13.8165C35.3438 15.1142 38.2118 14.8655 38.2118 13.3781C38.2118 12.7769 37.9462 12.2934 37.2828 11.6874C36.6014 11.065 35.5436 10.5633 34.7044 10.4645L34.0697 10.3898L33.8437 11.1676ZM50.7697 12.8114C50.102 12.9579 49.5804 13.3013 48.9518 14.0083C48.3657 14.6674 47.8001 15.7011 47.6315 16.4215C47.5528 16.758 47.5826 16.7836 48.2123 16.9202C48.9648 17.0833 49.5152 17.3408 50.1678 17.8353L50.6178 18.1762L51.0724 17.6534C51.3224 17.3658 51.7105 16.7416 51.9349 16.2663C52.2635 15.5702 52.3433 15.2297 52.3453 14.5149C52.3488 13.183 51.7968 12.5861 50.7697 12.8114ZM13.4228 13.1276C12.7941 13.4045 11.7037 14.7084 11.3886 15.5599C10.8104 17.1224 10.9136 18.81 11.632 19.5361C12.5793 20.4941 14.556 19.0741 15.1973 16.9751C15.8349 14.8876 15.2708 12.9192 14.0432 12.9477C13.9199 12.9506 13.6408 13.0316 13.4228 13.1276ZM27.0677 13.613C26.4408 13.9359 26.211 14.4555 26.397 15.1294C26.5583 15.7135 27.5157 16.6244 28.4676 17.0991C29.1873 17.4581 29.4823 17.5255 30.5058 17.5651C31.848 17.617 32.4653 17.409 32.8043 16.7904C33.2823 15.9185 32.3535 14.5887 30.7438 13.8401C29.538 13.2793 27.9109 13.1788 27.0677 13.613ZM23.8129 14.5484C23.0897 14.9901 22.1086 15.5643 21.6329 15.8245L20.7676 16.2978L20.904 16.8471C20.9789 17.1493 21.0518 17.4154 21.0658 17.4387C21.0799 17.4621 21.3724 17.2643 21.7158 16.9992C22.8441 16.1284 23.3188 15.9401 24.3792 15.9427L25.3399 15.945L25.2345 15.6071C25.1767 15.4213 25.1326 14.9251 25.1368 14.5047C25.1409 14.0843 25.1407 13.7414 25.1362 13.7429C25.1316 13.7443 24.5362 14.1068 23.8129 14.5484ZM44.1291 14.0105C43.0673 14.5083 41.8432 16.133 41.5764 17.3985C41.492 17.7989 41.4931 17.7998 42.2992 17.9547C42.822 18.0551 43.3613 18.2808 43.8294 18.595L44.5523 19.0803L44.9386 18.7061C45.4651 18.196 46.186 16.6973 46.2968 15.8818C46.5233 14.2171 45.5256 13.356 44.1291 14.0105ZM38.4965 15.1903C38.2553 15.4009 37.7964 15.6474 37.4767 15.7378C36.9837 15.8774 36.816 16.0229 36.3714 16.696C34.8047 19.068 35.3182 21.4568 37.2799 20.9227C38.0595 20.7105 39.2914 19.5036 39.8049 18.4491C40.3841 17.2595 40.4746 15.9994 40.0284 15.3357C39.61 14.7133 39.0982 14.6648 38.4965 15.1903ZM16.945 16.3598C16.7305 16.4017 16.6122 16.5657 16.5045 16.9699C16.4236 17.2738 16.1713 17.8832 15.9439 18.3238C15.7166 18.7644 15.5128 19.1624 15.4911 19.2084C15.4694 19.2546 15.7648 19.3325 16.1476 19.3819C16.5304 19.4312 17.1691 19.5845 17.5669 19.7224L18.2901 19.9733L18.7944 19.4826C20.4339 17.887 19.9923 16.2316 17.9415 16.2844C17.5546 16.2944 17.1062 16.3283 16.945 16.3598ZM52.6126 17.6504C52.3682 18.0226 51.9867 18.5028 51.7647 18.7176C51.5429 18.9323 51.3614 19.1471 51.3614 19.1949C51.3614 19.2426 51.5998 19.3612 51.8914 19.4585C52.1828 19.5557 52.7578 19.8591 53.1691 20.1326L53.9169 20.6297L54.3904 20.3854C55.128 20.0051 55.8323 19.1415 55.8323 18.6177C55.8323 17.8478 55.0254 17.2438 53.7662 17.0709L53.0569 16.9736L52.6126 17.6504ZM23.8779 17.1882C23.219 17.391 22.7441 17.7172 22.0949 18.4139C21.3891 19.1713 20.9672 19.9379 20.7054 20.9397C20.5567 21.5085 20.5706 21.6206 20.879 22.3357C21.0633 22.7634 21.2497 23.218 21.2931 23.346C21.4029 23.6699 22.2013 23.651 22.9019 23.3081C23.206 23.1594 23.7605 22.7108 24.1341 22.3114C25.8238 20.505 26.1805 17.7038 24.7835 17.2113C24.3175 17.0471 24.3352 17.0475 23.8779 17.1882ZM46.6882 18.4035C46.5644 18.6455 46.1674 19.1598 45.8058 19.5463L45.1485 20.2489L45.5021 20.3849C45.6966 20.4596 45.9 20.5208 45.954 20.5208C46.0082 20.5208 46.4594 20.7689 46.9567 21.0723L47.861 21.6236L48.4344 21.3161C49.9961 20.4784 50.1961 19.143 48.8619 18.4595C48.5207 18.2847 47.9426 18.1016 47.5774 18.0525C46.925 17.965 46.9094 17.9712 46.6882 18.4035ZM40.6215 19.5417C40.4642 19.8245 40.0944 20.32 39.7996 20.6428C39.5049 20.9657 39.2785 21.2409 39.2966 21.2544C39.3147 21.268 39.6646 21.4318 40.0742 21.6184C40.4838 21.8052 41.0397 22.1098 41.3098 22.2953L41.8008 22.6327L42.4308 22.3099C44.4911 21.2543 44.0147 19.3123 41.6421 19.0947L40.9073 19.0273L40.6215 19.5417ZM33.8067 20.3448C32.6502 20.4913 29.6982 20.942 29.4956 21.0029C29.2857 21.066 29.2949 21.1005 29.5827 21.3294C29.7597 21.4702 30.0365 21.8611 30.1977 22.1979L30.491 22.8102L31.1625 22.7133C31.532 22.6601 32.6133 22.5189 33.5658 22.3995C34.5181 22.2803 35.3407 22.1387 35.3938 22.0848C35.4471 22.031 35.3387 21.8663 35.1532 21.7187C34.9676 21.5711 34.687 21.1814 34.5296 20.8526C34.3722 20.5238 34.2339 20.2638 34.2223 20.2748C34.2106 20.2857 34.0236 20.3172 33.8067 20.3448ZM50.7319 20.7112C50.5313 21.1564 49.8008 21.9659 49.4024 22.1846C48.6635 22.5902 48.6681 22.5734 49.1131 23.2273C49.9409 24.4438 51.1479 25.0723 52.698 25.0937C53.5879 25.1061 53.7445 25.0708 54.0388 24.792C54.4475 24.4046 54.51 24.0749 54.3105 23.3596C54.0153 22.3012 52.8313 21.1556 51.5066 20.6468L50.8709 20.4026L50.7319 20.7112ZM14.4471 20.6499C12.355 21.1524 12.8192 23.233 15.3 24.4732C16.2628 24.9545 16.3576 24.9747 17.6483 24.9747C19.1301 24.9747 19.5501 24.8039 19.9141 24.0528C20.0669 23.7374 20.061 23.6054 19.8712 23.1033C19.4503 21.9887 17.8752 20.9294 16.2406 20.6612C15.293 20.5058 15.0536 20.5042 14.4471 20.6499ZM9.01957 21.5359C7.97089 21.9367 5.78148 22.6849 4.15421 23.1982C2.52694 23.7115 0.988435 24.204 0.735304 24.2924C-0.142302 24.5992 -0.26512 25.6945 0.533852 26.088C0.854177 26.2457 1.01421 26.2405 1.70759 26.0492C3.25254 25.6232 7.13339 24.3436 9.50203 23.4791L11.8912 22.6071L11.9783 21.0741L11.5028 20.9304C11.2412 20.8514 11.0045 20.7912 10.9768 20.7968C10.949 20.8024 10.0683 21.1349 9.01957 21.5359ZM25.931 22.0375C25.7466 22.3554 25.337 22.8849 25.0205 23.2141L24.4452 23.8127L25.1624 24.1132C25.5568 24.2786 26.1662 24.6087 26.5164 24.8471L27.1531 25.2802L27.6804 25.0164C28.5 24.6064 29.1385 23.815 29.1385 23.2091C29.1385 22.9331 29.0523 22.5826 28.9468 22.4305C28.7063 22.0832 27.6868 21.6434 26.8805 21.5389C26.2669 21.4594 26.2655 21.4602 25.931 22.0375ZM44.5468 22.0567C44.1809 22.5814 43.3004 23.3462 42.9042 23.4832C42.7463 23.5379 43.1676 24.4595 43.5642 24.9268C43.9005 25.323 45.2955 25.983 46.0665 26.1105C47.0213 26.2685 47.5756 26.1661 48.02 25.7498C48.8055 25.0136 48.097 23.3626 46.5397 22.3009C46.0987 22.0003 45.5609 21.6918 45.3445 21.6155C44.9712 21.484 44.9302 21.5068 44.5468 22.0567ZM37.1619 22.3873C36.6087 22.5164 36.1078 23.066 36.1078 23.5441C36.1078 24.5203 37.3155 25.9713 38.7025 26.6617C39.8058 27.2108 41.2141 27.325 41.8537 26.9173C42.3855 26.5781 42.5274 25.9579 42.2349 25.2503C41.4859 23.4378 38.9045 21.981 37.1619 22.3873ZM21.9506 25.1217C20.4289 25.8805 21.76 28.4995 24.2074 29.5621C25.102 29.9506 26.4617 30.0605 26.9852 29.7868C27.2037 29.6726 27.4603 29.4844 27.5552 29.3686C27.8104 29.0577 27.7651 28.2332 27.4595 27.6275C27.1669 27.0477 26.1861 26.062 25.4566 25.6146C24.3857 24.9579 22.7423 24.7269 21.9506 25.1217ZM12.0302 26.2593C9.83617 27.1953 5.7056 29.2092 4.44468 29.9579C4.0619 30.1851 3.68385 30.5152 3.60442 30.6915C3.40481 31.1344 3.67398 31.7535 4.15355 31.9544C4.49886 32.0991 4.77369 31.9846 8.06715 30.3259C10.0154 29.3446 12.8602 28.0403 14.3889 27.4274L17.1682 26.3131L16.3759 26.1497C15.9401 26.0599 15.2691 25.8407 14.8849 25.6629L14.1861 25.3394L12.0302 26.2593Z" fill="#40515A"/>
<path fill-rule="evenodd" clip-rule="evenodd" d="M37.2053 0.166683C36.0972 0.681608 35.0248 2.58243 35.039 4.00608C35.0429 4.39257 35.0814 4.76643 35.1245 4.83703C35.1677 4.90763 35.6358 4.96533 36.1648 4.96533C36.6939 4.96533 37.3711 5.05255 37.6699 5.15904C38.1901 5.34464 38.2211 5.34039 38.4029 5.05933C39.1054 3.97298 39.4634 2.05766 39.1458 1.08472C38.8282 0.111907 38.0823 -0.240949 37.2053 0.166683ZM31.8342 3.15558C31.3817 3.35515 30.5694 4.22013 30.2526 4.83956C29.7752 5.77302 29.6499 6.34378 29.7383 7.18337L29.8248 8.00529L30.698 7.93748C31.2847 7.89188 31.7836 7.93642 32.2186 8.07336C32.816 8.26122 32.8792 8.25949 33.0375 8.05036C33.3844 7.59234 33.7737 6.33713 33.8398 5.4635C33.9825 3.57984 33.1205 2.58788 31.8342 3.15558ZM41.1705 3.16276C41.0981 3.19082 40.8829 3.24825 40.6922 3.29053C40.4234 3.35009 40.3262 3.47081 40.2601 3.82753C40.2132 4.08067 39.9796 4.67948 39.7412 5.15838C39.5028 5.63741 39.3374 6.059 39.3734 6.09556C39.4096 6.13199 39.6301 6.1619 39.8635 6.1619C40.0971 6.1619 40.6858 6.28608 41.1719 6.43791L42.0557 6.71392L42.4394 6.34219C42.6504 6.13784 42.977 5.65256 43.165 5.26381C43.5625 4.44256 43.4943 3.8928 42.9446 3.4881C42.6391 3.26328 41.4665 3.04829 41.1705 3.16276ZM26.8036 6.00635C25.5292 6.38872 24.2732 8.57951 24.2732 10.4196C24.2732 11.8185 24.7451 12.5437 25.6556 12.5437C26.9656 12.5437 28.3784 10.5713 28.5723 8.47168C28.726 6.80739 27.9125 5.67357 26.8036 6.00635ZM35.3364 6.2688C35.1007 6.34165 34.9688 6.54879 34.7937 7.12129C34.6664 7.53729 34.408 8.14369 34.2194 8.46889L33.8768 9.06026L34.7524 9.21449C35.2339 9.29931 35.8288 9.45354 36.0742 9.55724C36.4667 9.72303 36.5585 9.7205 36.8359 9.53676C37.2387 9.26993 37.9066 8.25431 38.0186 7.73832C38.1242 7.25224 37.907 6.68135 37.5247 6.43991C37.1993 6.23449 35.8013 6.12507 35.3364 6.2688ZM39.2609 7.70561C39.2572 8.20086 38.8485 9.1068 38.3301 9.76837C37.834 10.4018 37.8798 10.4805 39.0953 11.0856C40.5188 11.7941 42.4006 11.8147 43.2048 11.1305C43.5182 10.8639 43.6031 10.6851 43.6031 10.2915C43.6031 9.08353 41.7414 7.61813 39.9314 7.40142C39.2652 7.32165 39.2638 7.32218 39.2609 7.70561ZM30.1411 9.19521C29.815 9.27365 29.7221 9.40873 29.4675 10.1737C29.305 10.6618 29.047 11.266 28.8941 11.5162C28.5711 12.0446 28.6248 12.1448 29.2303 12.1448C29.4737 12.1448 30.0268 12.2654 30.4593 12.4127C31.1898 12.6614 31.2688 12.6653 31.5687 12.4667C31.7462 12.349 32.0735 11.9749 32.296 11.6353C32.6333 11.1204 32.6941 10.9095 32.6618 10.3649C32.6312 9.84801 32.5547 9.66134 32.2945 9.46856C31.9334 9.20106 30.7435 9.05002 30.1411 9.19521ZM33.8437 11.1676C33.7174 11.6025 33.384 12.2542 33.0876 12.646C32.796 13.0315 32.5574 13.3729 32.5574 13.4049C32.5574 13.437 32.8258 13.6222 33.1539 13.8165C35.3438 15.1142 38.2118 14.8655 38.2118 13.3781C38.2118 12.7769 37.9462 12.2934 37.2828 11.6874C36.6014 11.065 35.5436 10.5633 34.7044 10.4645L34.0697 10.3898L33.8437 11.1676ZM50.7697 12.8114C50.102 12.9579 49.5804 13.3013 48.9518 14.0083C48.3657 14.6674 47.8001 15.7011 47.6315 16.4215C47.5528 16.758 47.5826 16.7836 48.2123 16.9202C48.9648 17.0833 49.5152 17.3408 50.1678 17.8353L50.6178 18.1762L51.0724 17.6534C51.3224 17.3658 51.7105 16.7416 51.9349 16.2663C52.2635 15.5702 52.3433 15.2297 52.3453 14.5149C52.3488 13.183 51.7968 12.5861 50.7697 12.8114ZM13.4228 13.1276C12.7941 13.4045 11.7037 14.7084 11.3886 15.5599C10.8104 17.1224 10.9136 18.81 11.632 19.5361C12.5793 20.4941 14.556 19.0741 15.1973 16.9751C15.8349 14.8876 15.2708 12.9192 14.0432 12.9477C13.9199 12.9506 13.6408 13.0316 13.4228 13.1276ZM27.0677 13.613C26.4408 13.9359 26.211 14.4555 26.397 15.1294C26.5583 15.7135 27.5157 16.6244 28.4676 17.0991C29.1873 17.4581 29.4823 17.5255 30.5058 17.5651C31.848 17.617 32.4653 17.409 32.8043 16.7904C33.2823 15.9185 32.3535 14.5887 30.7438 13.8401C29.538 13.2793 27.9109 13.1788 27.0677 13.613ZM23.8129 14.5484C23.0897 14.9901 22.1086 15.5643 21.6329 15.8245L20.7676 16.2978L20.904 16.8471C20.9789 17.1493 21.0518 17.4154 21.0658 17.4387C21.0799 17.4621 21.3724 17.2643 21.7158 16.9992C22.8441 16.1284 23.3188 15.9401 24.3792 15.9427L25.3399 15.945L25.2345 15.6071C25.1767 15.4213 25.1326 14.9251 25.1368 14.5047C25.1409 14.0843 25.1407 13.7414 25.1362 13.7429C25.1316 13.7443 24.5362 14.1068 23.8129 14.5484ZM44.1291 14.0105C43.0673 14.5083 41.8432 16.133 41.5764 17.3985C41.492 17.7989 41.4931 17.7998 42.2992 17.9547C42.822 18.0551 43.3613 18.2808 43.8294 18.595L44.5523 19.0803L44.9386 18.7061C45.4651 18.196 46.186 16.6973 46.2968 15.8818C46.5233 14.2171 45.5256 13.356 44.1291 14.0105ZM38.4965 15.1903C38.2553 15.4009 37.7964 15.6474 37.4767 15.7378C36.9837 15.8774 36.816 16.0229 36.3714 16.696C34.8047 19.068 35.3182 21.4568 37.2799 20.9227C38.0595 20.7105 39.2914 19.5036 39.8049 18.4491C40.3841 17.2595 40.4746 15.9994 40.0284 15.3357C39.61 14.7133 39.0982 14.6648 38.4965 15.1903ZM16.945 16.3598C16.7305 16.4017 16.6122 16.5657 16.5045 16.9699C16.4236 17.2738 16.1713 17.8832 15.9439 18.3238C15.7166 18.7644 15.5128 19.1624 15.4911 19.2084C15.4694 19.2546 15.7648 19.3325 16.1476 19.3819C16.5304 19.4312 17.1691 19.5845 17.5669 19.7224L18.2901 19.9733L18.7944 19.4826C20.4339 17.887 19.9923 16.2316 17.9415 16.2844C17.5546 16.2944 17.1062 16.3283 16.945 16.3598ZM52.6126 17.6504C52.3682 18.0226 51.9867 18.5028 51.7647 18.7176C51.5429 18.9323 51.3614 19.1471 51.3614 19.1949C51.3614 19.2426 51.5998 19.3612 51.8914 19.4585C52.1828 19.5557 52.7578 19.8591 53.1691 20.1326L53.9169 20.6297L54.3904 20.3854C55.128 20.0051 55.8323 19.1415 55.8323 18.6177C55.8323 17.8478 55.0254 17.2438 53.7662 17.0709L53.0569 16.9736L52.6126 17.6504ZM23.8779 17.1882C23.219 17.391 22.7441 17.7172 22.0949 18.4139C21.3891 19.1713 20.9672 19.9379 20.7054 20.9397C20.5567 21.5085 20.5706 21.6206 20.879 22.3357C21.0633 22.7634 21.2497 23.218 21.2931 23.346C21.4029 23.6699 22.2013 23.651 22.9019 23.3081C23.206 23.1594 23.7605 22.7108 24.1341 22.3114C25.8238 20.505 26.1805 17.7038 24.7835 17.2113C24.3175 17.0471 24.3352 17.0475 23.8779 17.1882ZM46.6882 18.4035C46.5644 18.6455 46.1674 19.1598 45.8058 19.5463L45.1485 20.2489L45.5021 20.3849C45.6966 20.4596 45.9 20.5208 45.954 20.5208C46.0082 20.5208 46.4594 20.7689 46.9567 21.0723L47.861 21.6236L48.4344 21.3161C49.9961 20.4784 50.1961 19.143 48.8619 18.4595C48.5207 18.2847 47.9426 18.1016 47.5774 18.0525C46.925 17.965 46.9094 17.9712 46.6882 18.4035ZM40.6215 19.5417C40.4642 19.8245 40.0944 20.32 39.7996 20.6428C39.5049 20.9657 39.2785 21.2409 39.2966 21.2544C39.3147 21.268 39.6646 21.4318 40.0742 21.6184C40.4838 21.8052 41.0397 22.1098 41.3098 22.2953L41.8008 22.6327L42.4308 22.3099C44.4911 21.2543 44.0147 19.3123 41.6421 19.0947L40.9073 19.0273L40.6215 19.5417ZM33.8067 20.3448C32.6502 20.4913 29.6982 20.942 29.4956 21.0029C29.2857 21.066 29.2949 21.1005 29.5827 21.3294C29.7597 21.4702 30.0365 21.8611 30.1977 22.1979L30.491 22.8102L31.1625 22.7133C31.532 22.6601 32.6133 22.5189 33.5658 22.3995C34.5181 22.2803 35.3407 22.1387 35.3938 22.0848C35.4471 22.031 35.3387 21.8663 35.1532 21.7187C34.9676 21.5711 34.687 21.1814 34.5296 20.8526C34.3722 20.5238 34.2339 20.2638 34.2223 20.2748C34.2106 20.2857 34.0236 20.3172 33.8067 20.3448ZM50.7319 20.7112C50.5313 21.1564 49.8008 21.9659 49.4024 22.1846C48.6635 22.5902 48.6681 22.5734 49.1131 23.2273C49.9409 24.4438 51.1479 25.0723 52.698 25.0937C53.5879 25.1061 53.7445 25.0708 54.0388 24.792C54.4475 24.4046 54.51 24.0749 54.3105 23.3596C54.0153 22.3012 52.8313 21.1556 51.5066 20.6468L50.8709 20.4026L50.7319 20.7112ZM14.4471 20.6499C12.355 21.1524 12.8192 23.233 15.3 24.4732C16.2628 24.9545 16.3576 24.9747 17.6483 24.9747C19.1301 24.9747 19.5501 24.8039 19.9141 24.0528C20.0669 23.7374 20.061 23.6054 19.8712 23.1033C19.4503 21.9887 17.8752 20.9294 16.2406 20.6612C15.293 20.5058 15.0536 20.5042 14.4471 20.6499ZM9.01957 21.5359C7.97089 21.9367 5.78148 22.6849 4.15421 23.1982C2.52694 23.7115 0.988435 24.204 0.735304 24.2924C-0.142302 24.5992 -0.26512 25.6945 0.533852 26.088C0.854177 26.2457 1.01421 26.2405 1.70759 26.0492C3.25254 25.6232 7.13339 24.3436 9.50203 23.4791L11.8912 22.6071L11.9783 21.0741L11.5028 20.9304C11.2412 20.8514 11.0045 20.7912 10.9768 20.7968C10.949 20.8024 10.0683 21.1349 9.01957 21.5359ZM25.931 22.0375C25.7466 22.3554 25.337 22.8849 25.0205 23.2141L24.4452 23.8127L25.1624 24.1132C25.5568 24.2786 26.1662 24.6087 26.5164 24.8471L27.1531 25.2802L27.6804 25.0164C28.5 24.6064 29.1385 23.815 29.1385 23.2091C29.1385 22.9331 29.0523 22.5826 28.9468 22.4305C28.7063 22.0832 27.6868 21.6434 26.8805 21.5389C26.2669 21.4594 26.2655 21.4602 25.931 22.0375ZM44.5468 22.0567C44.1809 22.5814 43.3004 23.3462 42.9042 23.4832C42.7463 23.5379 43.1676 24.4595 43.5642 24.9268C43.9005 25.323 45.2955 25.983 46.0665 26.1105C47.0213 26.2685 47.5756 26.1661 48.02 25.7498C48.8055 25.0136 48.097 23.3626 46.5397 22.3009C46.0987 22.0003 45.5609 21.6918 45.3445 21.6155C44.9712 21.484 44.9302 21.5068 44.5468 22.0567ZM37.1619 22.3873C36.6087 22.5164 36.1078 23.066 36.1078 23.5441C36.1078 24.5203 37.3155 25.9713 38.7025 26.6617C39.8058 27.2108 41.2141 27.325 41.8537 26.9173C42.3855 26.5781 42.5274 25.9579 42.2349 25.2503C41.4859 23.4378 38.9045 21.981 37.1619 22.3873ZM21.9506 25.1217C20.4289 25.8805 21.76 28.4995 24.2074 29.5621C25.102 29.9506 26.4617 30.0605 26.9852 29.7868C27.2037 29.6726 27.4603 29.4844 27.5552 29.3686C27.8104 29.0577 27.7651 28.2332 27.4595 27.6275C27.1669 27.0477 26.1861 26.062 25.4566 25.6146C24.3857 24.9579 22.7423 24.7269 21.9506 25.1217ZM12.0302 26.2593C9.83617 27.1953 5.7056 29.2092 4.44468 29.9579C4.0619 30.1851 3.68385 30.5152 3.60442 30.6915C3.40481 31.1344 3.67398 31.7535 4.15355 31.9544C4.49886 32.0991 4.77369 31.9846 8.06715 30.3259C10.0154 29.3446 12.8602 28.0403 14.3889 27.4274L17.1682 26.3131L16.3759 26.1497C15.9401 26.0599 15.2691 25.8407 14.8849 25.6629L14.1861 25.3394L12.0302 26.2593Z" fill="black" fill-opacity="0.2"/>
<path d="M75.695 13.4033C75.0608 13.4033 74.4509 13.3005 73.8654 13.095C73.2881 12.8812 72.8409 12.6099 72.5237 12.281L72.8775 11.5781C73.1783 11.8741 73.5808 12.1248 74.085 12.3304C74.5973 12.5277 75.1339 12.6263 75.695 12.6263C76.2317 12.6263 76.6667 12.5606 77.0001 12.429C77.3416 12.2893 77.5896 12.1043 77.7441 11.8741C77.9068 11.6439 77.9881 11.389 77.9881 11.1095C77.9881 10.7724 77.8905 10.5011 77.6954 10.2955C77.5083 10.09 77.2603 9.92968 76.9513 9.81458C76.6423 9.69126 76.3008 9.58438 75.9268 9.49394C75.5527 9.4035 75.1787 9.30896 74.8046 9.2103C74.4306 9.10342 74.085 8.96365 73.7679 8.791C73.4589 8.61835 73.2068 8.39226 73.0116 8.11273C72.8246 7.82497 72.7311 7.45089 72.7311 6.99049C72.7311 6.56297 72.8409 6.17245 73.0604 5.81892C73.2881 5.45718 73.6337 5.16942 74.0972 4.95567C74.5607 4.73368 75.1543 4.62269 75.878 4.62269C76.3577 4.62269 76.8334 4.69258 77.305 4.83234C77.7767 4.96389 78.1832 5.14887 78.5248 5.38729L78.2198 6.1149C77.8539 5.86825 77.4636 5.68738 77.0489 5.57228C76.6423 5.45718 76.248 5.39963 75.8658 5.39963C75.3535 5.39963 74.9307 5.46951 74.5973 5.60927C74.2639 5.74904 74.0159 5.93814 73.8532 6.17656C73.6987 6.40676 73.6215 6.66985 73.6215 6.96582C73.6215 7.30291 73.715 7.57422 73.902 7.77975C74.0972 7.98529 74.3493 8.14561 74.6582 8.26071C74.9754 8.37581 75.321 8.47858 75.695 8.56902C76.0691 8.65946 76.439 8.75811 76.805 8.86499C77.179 8.97187 77.5205 9.11164 77.8295 9.28429C78.1467 9.44872 78.3987 9.6707 78.5857 9.95023C78.7809 10.2298 78.8785 10.5956 78.8785 11.0478C78.8785 11.4671 78.7646 11.8576 78.537 12.2194C78.3093 12.5729 77.9596 12.8606 77.488 13.0826C77.0245 13.2964 76.4268 13.4033 75.695 13.4033Z" fill="#40515A"/>
<path d="M75.695 13.4033C75.0608 13.4033 74.4509 13.3005 73.8654 13.095C73.2881 12.8812 72.8409 12.6099 72.5237 12.281L72.8775 11.5781C73.1783 11.8741 73.5808 12.1248 74.085 12.3304C74.5973 12.5277 75.1339 12.6263 75.695 12.6263C76.2317 12.6263 76.6667 12.5606 77.0001 12.429C77.3416 12.2893 77.5896 12.1043 77.7441 11.8741C77.9068 11.6439 77.9881 11.389 77.9881 11.1095C77.9881 10.7724 77.8905 10.5011 77.6954 10.2955C77.5083 10.09 77.2603 9.92968 76.9513 9.81458C76.6423 9.69126 76.3008 9.58438 75.9268 9.49394C75.5527 9.4035 75.1787 9.30896 74.8046 9.2103C74.4306 9.10342 74.085 8.96365 73.7679 8.791C73.4589 8.61835 73.2068 8.39226 73.0116 8.11273C72.8246 7.82497 72.7311 7.45089 72.7311 6.99049C72.7311 6.56297 72.8409 6.17245 73.0604 5.81892C73.2881 5.45718 73.6337 5.16942 74.0972 4.95567C74.5607 4.73368 75.1543 4.62269 75.878 4.62269C76.3577 4.62269 76.8334 4.69258 77.305 4.83234C77.7767 4.96389 78.1832 5.14887 78.5248 5.38729L78.2198 6.1149C77.8539 5.86825 77.4636 5.68738 77.0489 5.57228C76.6423 5.45718 76.248 5.39963 75.8658 5.39963C75.3535 5.39963 74.9307 5.46951 74.5973 5.60927C74.2639 5.74904 74.0159 5.93814 73.8532 6.17656C73.6987 6.40676 73.6215 6.66985 73.6215 6.96582C73.6215 7.30291 73.715 7.57422 73.902 7.77975C74.0972 7.98529 74.3493 8.14561 74.6582 8.26071C74.9754 8.37581 75.321 8.47858 75.695 8.56902C76.0691 8.65946 76.439 8.75811 76.805 8.86499C77.179 8.97187 77.5205 9.11164 77.8295 9.28429C78.1467 9.44872 78.3987 9.6707 78.5857 9.95023C78.7809 10.2298 78.8785 10.5956 78.8785 11.0478C78.8785 11.4671 78.7646 11.8576 78.537 12.2194C78.3093 12.5729 77.9596 12.8606 77.488 13.0826C77.0245 13.2964 76.4268 13.4033 75.695 13.4033Z" fill="black" fill-opacity="0.2"/>
<path d="M80.8451 13.3293V4.69669H84.0408C84.7645 4.69669 85.3865 4.8159 85.9069 5.05432C86.4274 5.28453 86.8258 5.62161 87.1023 6.06557C87.3869 6.50131 87.5292 7.0316 87.5292 7.65643C87.5292 8.26482 87.3869 8.791 87.1023 9.23496C86.8258 9.6707 86.4274 10.0078 85.9069 10.2462C85.3865 10.4846 84.7645 10.6038 84.0408 10.6038H81.3452L81.7477 10.1722V13.3293H80.8451ZM81.7477 10.2462L81.3452 9.80225H84.0164C84.8702 9.80225 85.5166 9.61726 85.9557 9.24729C86.403 8.8691 86.6266 8.33882 86.6266 7.65643C86.6266 6.96582 86.403 6.43143 85.9557 6.05324C85.5166 5.67505 84.8702 5.48595 84.0164 5.48595H81.3452L81.7477 5.05432V10.2462Z" fill="#40515A"/>
<path d="M80.8451 13.3293V4.69669H84.0408C84.7645 4.69669 85.3865 4.8159 85.9069 5.05432C86.4274 5.28453 86.8258 5.62161 87.1023 6.06557C87.3869 6.50131 87.5292 7.0316 87.5292 7.65643C87.5292 8.26482 87.3869 8.791 87.1023 9.23496C86.8258 9.6707 86.4274 10.0078 85.9069 10.2462C85.3865 10.4846 84.7645 10.6038 84.0408 10.6038H81.3452L81.7477 10.1722V13.3293H80.8451ZM81.7477 10.2462L81.3452 9.80225H84.0164C84.8702 9.80225 85.5166 9.61726 85.9557 9.24729C86.403 8.8691 86.6266 8.33882 86.6266 7.65643C86.6266 6.96582 86.403 6.43143 85.9557 6.05324C85.5166 5.67505 84.8702 5.48595 84.0164 5.48595H81.3452L81.7477 5.05432V10.2462Z" fill="black" fill-opacity="0.2"/>
<path d="M87.6859 13.3293L91.589 4.69669H92.4794L96.3825 13.3293H95.4312L91.8452 5.22697H92.2111L88.6251 13.3293H87.6859ZM89.2228 11.0231L89.4911 10.2832H94.4554L94.7237 11.0231H89.2228Z" fill="#40515A"/>
<path d="M87.6859 13.3293L91.589 4.69669H92.4794L96.3825 13.3293H95.4312L91.8452 5.22697H92.2111L88.6251 13.3293H87.6859ZM89.2228 11.0231L89.4911 10.2832H94.4554L94.7237 11.0231H89.2228Z" fill="black" fill-opacity="0.2"/>
<path d="M100.987 13.3293V4.69669H104.183C104.907 4.69669 105.529 4.8159 106.049 5.05432C106.569 5.28453 106.968 5.62161 107.244 6.06557C107.529 6.50131 107.671 7.0316 107.671 7.65643C107.671 8.26482 107.529 8.791 107.244 9.23496C106.968 9.6707 106.569 10.0078 106.049 10.2462C105.529 10.4764 104.907 10.5915 104.183 10.5915H101.487L101.89 10.1722V13.3293H100.987ZM106.817 13.3293L104.622 10.1969H105.598L107.805 13.3293H106.817ZM101.89 10.2462L101.487 9.81458H104.158C105.012 9.81458 105.659 9.62548 106.098 9.24729C106.545 8.8691 106.769 8.33882 106.769 7.65643C106.769 6.96582 106.545 6.43143 106.098 6.05324C105.659 5.67505 105.012 5.48595 104.158 5.48595H101.487L101.89 5.05432V10.2462Z" fill="#40515A"/>
<path d="M100.987 13.3293V4.69669H104.183C104.907 4.69669 105.529 4.8159 106.049 5.05432C106.569 5.28453 106.968 5.62161 107.244 6.06557C107.529 6.50131 107.671 7.0316 107.671 7.65643C107.671 8.26482 107.529 8.791 107.244 9.23496C106.968 9.6707 106.569 10.0078 106.049 10.2462C105.529 10.4764 104.907 10.5915 104.183 10.5915H101.487L101.89 10.1722V13.3293H100.987ZM106.817 13.3293L104.622 10.1969H105.598L107.805 13.3293H106.817ZM101.89 10.2462L101.487 9.81458H104.158C105.012 9.81458 105.659 9.62548 106.098 9.24729C106.545 8.8691 106.769 8.33882 106.769 7.65643C106.769 6.96582 106.545 6.43143 106.098 6.05324C105.659 5.67505 105.012 5.48595 104.158 5.48595H101.487L101.89 5.05432V10.2462Z" fill="black" fill-opacity="0.2"/>
<path d="M113.534 13.4033C112.892 13.4033 112.294 13.2964 111.741 13.0826C111.196 12.8606 110.72 12.5523 110.314 12.1577C109.915 11.7549 109.602 11.2903 109.375 10.7642C109.155 10.2298 109.045 9.64604 109.045 9.01298C109.045 8.37992 109.155 7.80031 109.375 7.27413C109.602 6.73973 109.915 6.27522 110.314 5.88059C110.72 5.47773 111.196 5.16942 111.741 4.95567C112.286 4.73368 112.883 4.62269 113.534 4.62269C114.176 4.62269 114.77 4.73368 115.315 4.95567C115.86 5.16942 116.331 5.47362 116.73 5.86825C117.136 6.26289 117.449 6.7274 117.669 7.2618C117.896 7.7962 118.01 8.37992 118.01 9.01298C118.01 9.64604 117.896 10.2298 117.669 10.7642C117.449 11.2986 117.136 11.7631 116.73 12.1577C116.331 12.5523 115.86 12.8606 115.315 13.0826C114.77 13.2964 114.176 13.4033 113.534 13.4033ZM113.534 12.5893C114.046 12.5893 114.518 12.503 114.949 12.3304C115.388 12.1495 115.766 11.8987 116.083 11.5781C116.408 11.2492 116.66 10.871 116.839 10.4435C117.018 10.0078 117.108 9.53094 117.108 9.01298C117.108 8.49503 117.018 8.02229 116.839 7.59477C116.66 7.15903 116.408 6.78084 116.083 6.4602C115.766 6.13134 115.388 5.88059 114.949 5.70793C114.518 5.52706 114.046 5.43662 113.534 5.43662C113.022 5.43662 112.546 5.52706 112.107 5.70793C111.668 5.88059 111.286 6.13134 110.96 6.4602C110.643 6.78084 110.391 7.15903 110.204 7.59477C110.025 8.02229 109.936 8.49503 109.936 9.01298C109.936 9.52271 110.025 9.99545 110.204 10.4312C110.391 10.8669 110.643 11.2492 110.96 11.5781C111.286 11.8987 111.668 12.1495 112.107 12.3304C112.546 12.503 113.022 12.5893 113.534 12.5893Z" fill="#40515A"/>
<path d="M113.534 13.4033C112.892 13.4033 112.294 13.2964 111.741 13.0826C111.196 12.8606 110.72 12.5523 110.314 12.1577C109.915 11.7549 109.602 11.2903 109.375 10.7642C109.155 10.2298 109.045 9.64604 109.045 9.01298C109.045 8.37992 109.155 7.80031 109.375 7.27413C109.602 6.73973 109.915 6.27522 110.314 5.88059C110.72 5.47773 111.196 5.16942 111.741 4.95567C112.286 4.73368 112.883 4.62269 113.534 4.62269C114.176 4.62269 114.77 4.73368 115.315 4.95567C115.86 5.16942 116.331 5.47362 116.73 5.86825C117.136 6.26289 117.449 6.7274 117.669 7.2618C117.896 7.7962 118.01 8.37992 118.01 9.01298C118.01 9.64604 117.896 10.2298 117.669 10.7642C117.449 11.2986 117.136 11.7631 116.73 12.1577C116.331 12.5523 115.86 12.8606 115.315 13.0826C114.77 13.2964 114.176 13.4033 113.534 13.4033ZM113.534 12.5893C114.046 12.5893 114.518 12.503 114.949 12.3304C115.388 12.1495 115.766 11.8987 116.083 11.5781C116.408 11.2492 116.66 10.871 116.839 10.4435C117.018 10.0078 117.108 9.53094 117.108 9.01298C117.108 8.49503 117.018 8.02229 116.839 7.59477C116.66 7.15903 116.408 6.78084 116.083 6.4602C115.766 6.13134 115.388 5.88059 114.949 5.70793C114.518 5.52706 114.046 5.43662 113.534 5.43662C113.022 5.43662 112.546 5.52706 112.107 5.70793C111.668 5.88059 111.286 6.13134 110.96 6.4602C110.643 6.78084 110.391 7.15903 110.204 7.59477C110.025 8.02229 109.936 8.49503 109.936 9.01298C109.936 9.52271 110.025 9.99545 110.204 10.4312C110.391 10.8669 110.643 11.2492 110.96 11.5781C111.286 11.8987 111.668 12.1495 112.107 12.3304C112.546 12.503 113.022 12.5893 113.534 12.5893Z" fill="black" fill-opacity="0.2"/>
<path d="M123.766 13.4033C123.123 13.4033 122.526 13.2964 121.973 13.0826C121.428 12.8606 120.952 12.5523 120.546 12.1577C120.147 11.7549 119.834 11.2903 119.607 10.7642C119.387 10.2298 119.277 9.64604 119.277 9.01298C119.277 8.37992 119.387 7.80031 119.607 7.27413C119.834 6.73973 120.147 6.27522 120.546 5.88059C120.952 5.47773 121.428 5.16942 121.973 4.95567C122.518 4.73368 123.115 4.62269 123.766 4.62269C124.408 4.62269 125.002 4.73368 125.547 4.95567C126.091 5.16942 126.563 5.47362 126.961 5.86825C127.368 6.26289 127.681 6.7274 127.901 7.2618C128.128 7.7962 128.242 8.37992 128.242 9.01298C128.242 9.64604 128.128 10.2298 127.901 10.7642C127.681 11.2986 127.368 11.7631 126.961 12.1577C126.563 12.5523 126.091 12.8606 125.547 13.0826C125.002 13.2964 124.408 13.4033 123.766 13.4033ZM123.766 12.5893C124.278 12.5893 124.75 12.503 125.181 12.3304C125.62 12.1495 125.998 11.8987 126.315 11.5781C126.64 11.2492 126.892 10.871 127.071 10.4435C127.25 10.0078 127.34 9.53094 127.34 9.01298C127.34 8.49503 127.25 8.02229 127.071 7.59477C126.892 7.15903 126.64 6.78084 126.315 6.4602C125.998 6.13134 125.62 5.88059 125.181 5.70793C124.75 5.52706 124.278 5.43662 123.766 5.43662C123.253 5.43662 122.778 5.52706 122.339 5.70793C121.9 5.88059 121.517 6.13134 121.192 6.4602C120.875 6.78084 120.623 7.15903 120.436 7.59477C120.257 8.02229 120.168 8.49503 120.168 9.01298C120.168 9.52271 120.257 9.99545 120.436 10.4312C120.623 10.8669 120.875 11.2492 121.192 11.5781C121.517 11.8987 121.9 12.1495 122.339 12.3304C122.778 12.503 123.253 12.5893 123.766 12.5893Z" fill="#40515A"/>
<path d="M123.766 13.4033C123.123 13.4033 122.526 13.2964 121.973 13.0826C121.428 12.8606 120.952 12.5523 120.546 12.1577C120.147 11.7549 119.834 11.2903 119.607 10.7642C119.387 10.2298 119.277 9.64604 119.277 9.01298C119.277 8.37992 119.387 7.80031 119.607 7.27413C119.834 6.73973 120.147 6.27522 120.546 5.88059C120.952 5.47773 121.428 5.16942 121.973 4.95567C122.518 4.73368 123.115 4.62269 123.766 4.62269C124.408 4.62269 125.002 4.73368 125.547 4.95567C126.091 5.16942 126.563 5.47362 126.961 5.86825C127.368 6.26289 127.681 6.7274 127.901 7.2618C128.128 7.7962 128.242 8.37992 128.242 9.01298C128.242 9.64604 128.128 10.2298 127.901 10.7642C127.681 11.2986 127.368 11.7631 126.961 12.1577C126.563 12.5523 126.091 12.8606 125.547 13.0826C125.002 13.2964 124.408 13.4033 123.766 13.4033ZM123.766 12.5893C124.278 12.5893 124.75 12.503 125.181 12.3304C125.62 12.1495 125.998 11.8987 126.315 11.5781C126.64 11.2492 126.892 10.871 127.071 10.4435C127.25 10.0078 127.34 9.53094 127.34 9.01298C127.34 8.49503 127.25 8.02229 127.071 7.59477C126.892 7.15903 126.64 6.78084 126.315 6.4602C125.998 6.13134 125.62 5.88059 125.181 5.70793C124.75 5.52706 124.278 5.43662 123.766 5.43662C123.253 5.43662 122.778 5.52706 122.339 5.70793C121.9 5.88059 121.517 6.13134 121.192 6.4602C120.875 6.78084 120.623 7.15903 120.436 7.59477C120.257 8.02229 120.168 8.49503 120.168 9.01298C120.168 9.52271 120.257 9.99545 120.436 10.4312C120.623 10.8669 120.875 11.2492 121.192 11.5781C121.517 11.8987 121.9 12.1495 122.339 12.3304C122.778 12.503 123.253 12.5893 123.766 12.5893Z" fill="black" fill-opacity="0.2"/>
<path d="M130.265 13.3293V4.69669H131.009L134.912 11.4301H134.522L138.389 4.69669H139.133V13.3293H138.267V6.06557H138.474L134.912 12.2317H134.485L130.9 6.06557H131.131V13.3293H130.265Z" fill="#40515A"/>
<path d="M130.265 13.3293V4.69669H131.009L134.912 11.4301H134.522L138.389 4.69669H139.133V13.3293H138.267V6.06557H138.474L134.912 12.2317H134.485L130.9 6.06557H131.131V13.3293H130.265Z" fill="black" fill-opacity="0.2"/>
<path d="M73.341 28.3042V19.6716H74.085L77.9881 26.405H77.5978L81.4643 19.6716H82.2083V28.3042H81.3423V21.0405H81.5497L77.9881 27.2066H77.5612L73.9752 21.0405H74.2069V28.3042H73.341Z" fill="#40515A"/>
<path d="M73.341 28.3042V19.6716H74.085L77.9881 26.405H77.5978L81.4643 19.6716H82.2083V28.3042H81.3423V21.0405H81.5497L77.9881 27.2066H77.5612L73.9752 21.0405H74.2069V28.3042H73.341Z" fill="black" fill-opacity="0.2"/>
<path d="M83.6242 28.3042L87.5273 19.6716H88.4177L92.3208 28.3042H91.3694L87.7834 20.2019H88.1493L84.5633 28.3042H83.6242ZM85.161 25.998L85.4293 25.2581H90.3936L90.6619 25.998H85.161Z" fill="#40515A"/>
<path d="M83.6242 28.3042L87.5273 19.6716H88.4177L92.3208 28.3042H91.3694L87.7834 20.2019H88.1493L84.5633 28.3042H83.6242ZM85.161 25.998L85.4293 25.2581H90.3936L90.6619 25.998H85.161Z" fill="black" fill-opacity="0.2"/>
<path d="M96.0872 28.3782C95.453 28.3782 94.8431 28.2754 94.2576 28.0699C93.6803 27.8561 93.2331 27.5848 92.916 27.2559L93.2697 26.553C93.5705 26.849 93.973 27.0997 94.4772 27.3053C94.9895 27.5026 95.5262 27.6012 96.0872 27.6012C96.6239 27.6012 97.0589 27.5355 97.3923 27.4039C97.7339 27.2642 97.9819 27.0792 98.1364 26.849C98.299 26.6188 98.3803 26.3639 98.3803 26.0844C98.3803 25.7473 98.2827 25.476 98.0876 25.2704C97.9006 25.0649 97.6525 24.9046 97.3435 24.7895C97.0345 24.6662 96.693 24.5593 96.319 24.4688C95.9449 24.3784 95.5709 24.2839 95.1968 24.1852C94.8228 24.0783 94.4772 23.9385 94.1601 23.7659C93.8511 23.5932 93.599 23.3672 93.4038 23.0876C93.2168 22.7999 93.1233 22.4258 93.1233 21.9654C93.1233 21.5379 93.2331 21.1473 93.4526 20.7938C93.6803 20.4321 94.0259 20.1443 94.4894 19.9306C94.9529 19.7086 95.5465 19.5976 96.2702 19.5976C96.7499 19.5976 97.2256 19.6675 97.6973 19.8072C98.1689 19.9388 98.5755 20.1238 98.917 20.3622L98.6121 21.0898C98.2461 20.8431 97.8558 20.6623 97.4411 20.5472C97.0345 20.4321 96.6402 20.3745 96.258 20.3745C95.7457 20.3745 95.3229 20.4444 94.9895 20.5842C94.6561 20.7239 94.4081 20.913 94.2455 21.1515C94.091 21.3817 94.0137 21.6447 94.0137 21.9407C94.0137 22.2778 94.1072 22.5491 94.2942 22.7547C94.4894 22.9602 94.7415 23.1205 95.0505 23.2356C95.3676 23.3507 95.7132 23.4535 96.0872 23.5439C96.4613 23.6344 96.8313 23.733 97.1972 23.8399C97.5712 23.9468 97.9128 24.0865 98.2217 24.2592C98.5389 24.4236 98.7909 24.6456 98.978 24.9251C99.1731 25.2047 99.2707 25.5705 99.2707 26.0227C99.2707 26.442 99.1569 26.8325 98.9292 27.1943C98.7015 27.5478 98.3519 27.8355 97.8802 28.0575C97.4167 28.2713 96.8191 28.3782 96.0872 28.3782Z" fill="#40515A"/>
<path d="M96.0872 28.3782C95.453 28.3782 94.8431 28.2754 94.2576 28.0699C93.6803 27.8561 93.2331 27.5848 92.916 27.2559L93.2697 26.553C93.5705 26.849 93.973 27.0997 94.4772 27.3053C94.9895 27.5026 95.5262 27.6012 96.0872 27.6012C96.6239 27.6012 97.0589 27.5355 97.3923 27.4039C97.7339 27.2642 97.9819 27.0792 98.1364 26.849C98.299 26.6188 98.3803 26.3639 98.3803 26.0844C98.3803 25.7473 98.2827 25.476 98.0876 25.2704C97.9006 25.0649 97.6525 24.9046 97.3435 24.7895C97.0345 24.6662 96.693 24.5593 96.319 24.4688C95.9449 24.3784 95.5709 24.2839 95.1968 24.1852C94.8228 24.0783 94.4772 23.9385 94.1601 23.7659C93.8511 23.5932 93.599 23.3672 93.4038 23.0876C93.2168 22.7999 93.1233 22.4258 93.1233 21.9654C93.1233 21.5379 93.2331 21.1473 93.4526 20.7938C93.6803 20.4321 94.0259 20.1443 94.4894 19.9306C94.9529 19.7086 95.5465 19.5976 96.2702 19.5976C96.7499 19.5976 97.2256 19.6675 97.6973 19.8072C98.1689 19.9388 98.5755 20.1238 98.917 20.3622L98.6121 21.0898C98.2461 20.8431 97.8558 20.6623 97.4411 20.5472C97.0345 20.4321 96.6402 20.3745 96.258 20.3745C95.7457 20.3745 95.3229 20.4444 94.9895 20.5842C94.6561 20.7239 94.4081 20.913 94.2455 21.1515C94.091 21.3817 94.0137 21.6447 94.0137 21.9407C94.0137 22.2778 94.1072 22.5491 94.2942 22.7547C94.4894 22.9602 94.7415 23.1205 95.0505 23.2356C95.3676 23.3507 95.7132 23.4535 96.0872 23.5439C96.4613 23.6344 96.8313 23.733 97.1972 23.8399C97.5712 23.9468 97.9128 24.0865 98.2217 24.2592C98.5389 24.4236 98.7909 24.6456 98.978 24.9251C99.1731 25.2047 99.2707 25.5705 99.2707 26.0227C99.2707 26.442 99.1569 26.8325 98.9292 27.1943C98.7015 27.5478 98.3519 27.8355 97.8802 28.0575C97.4167 28.2713 96.8191 28.3782 96.0872 28.3782Z" fill="black" fill-opacity="0.2"/>
<path d="M103.591 28.3782C102.957 28.3782 102.347 28.2754 101.762 28.0699C101.184 27.8561 100.737 27.5848 100.42 27.2559L100.774 26.553C101.075 26.849 101.477 27.0997 101.981 27.3053C102.494 27.5026 103.03 27.6012 103.591 27.6012C104.128 27.6012 104.563 27.5355 104.896 27.4039C105.238 27.2642 105.486 27.0792 105.641 26.849C105.803 26.6188 105.884 26.3639 105.884 26.0844C105.884 25.7473 105.787 25.476 105.592 25.2704C105.405 25.0649 105.157 24.9046 104.848 24.7895C104.539 24.6662 104.197 24.5593 103.823 24.4688C103.449 24.3784 103.075 24.2839 102.701 24.1852C102.327 24.0783 101.981 23.9385 101.664 23.7659C101.355 23.5932 101.103 23.3672 100.908 23.0876C100.721 22.7999 100.627 22.4258 100.627 21.9654C100.627 21.5379 100.737 21.1473 100.957 20.7938C101.184 20.4321 101.53 20.1443 101.994 19.9306C102.457 19.7086 103.051 19.5976 103.774 19.5976C104.254 19.5976 104.73 19.6675 105.201 19.8072C105.673 19.9388 106.08 20.1238 106.421 20.3622L106.116 21.0898C105.75 20.8431 105.36 20.6623 104.945 20.5472C104.539 20.4321 104.144 20.3745 103.762 20.3745C103.25 20.3745 102.827 20.4444 102.494 20.5842C102.16 20.7239 101.912 20.913 101.75 21.1515C101.595 21.3817 101.518 21.6447 101.518 21.9407C101.518 22.2778 101.611 22.5491 101.798 22.7547C101.994 22.9602 102.246 23.1205 102.555 23.2356C102.872 23.3507 103.217 23.4535 103.591 23.5439C103.965 23.6344 104.335 23.733 104.701 23.8399C105.075 23.9468 105.417 24.0865 105.726 24.2592C106.043 24.4236 106.295 24.6456 106.482 24.9251C106.677 25.2047 106.775 25.5705 106.775 26.0227C106.775 26.442 106.661 26.8325 106.433 27.1943C106.206 27.5478 105.856 27.8355 105.384 28.0575C104.921 28.2713 104.323 28.3782 103.591 28.3782Z" fill="#40515A"/>
<path d="M103.591 28.3782C102.957 28.3782 102.347 28.2754 101.762 28.0699C101.184 27.8561 100.737 27.5848 100.42 27.2559L100.774 26.553C101.075 26.849 101.477 27.0997 101.981 27.3053C102.494 27.5026 103.03 27.6012 103.591 27.6012C104.128 27.6012 104.563 27.5355 104.896 27.4039C105.238 27.2642 105.486 27.0792 105.641 26.849C105.803 26.6188 105.884 26.3639 105.884 26.0844C105.884 25.7473 105.787 25.476 105.592 25.2704C105.405 25.0649 105.157 24.9046 104.848 24.7895C104.539 24.6662 104.197 24.5593 103.823 24.4688C103.449 24.3784 103.075 24.2839 102.701 24.1852C102.327 24.0783 101.981 23.9385 101.664 23.7659C101.355 23.5932 101.103 23.3672 100.908 23.0876C100.721 22.7999 100.627 22.4258 100.627 21.9654C100.627 21.5379 100.737 21.1473 100.957 20.7938C101.184 20.4321 101.53 20.1443 101.994 19.9306C102.457 19.7086 103.051 19.5976 103.774 19.5976C104.254 19.5976 104.73 19.6675 105.201 19.8072C105.673 19.9388 106.08 20.1238 106.421 20.3622L106.116 21.0898C105.75 20.8431 105.36 20.6623 104.945 20.5472C104.539 20.4321 104.144 20.3745 103.762 20.3745C103.25 20.3745 102.827 20.4444 102.494 20.5842C102.16 20.7239 101.912 20.913 101.75 21.1515C101.595 21.3817 101.518 21.6447 101.518 21.9407C101.518 22.2778 101.611 22.5491 101.798 22.7547C101.994 22.9602 102.246 23.1205 102.555 23.2356C102.872 23.3507 103.217 23.4535 103.591 23.5439C103.965 23.6344 104.335 23.733 104.701 23.8399C105.075 23.9468 105.417 24.0865 105.726 24.2592C106.043 24.4236 106.295 24.6456 106.482 24.9251C106.677 25.2047 106.775 25.5705 106.775 26.0227C106.775 26.442 106.661 26.8325 106.433 27.1943C106.206 27.5478 105.856 27.8355 105.384 28.0575C104.921 28.2713 104.323 28.3782 103.591 28.3782Z" fill="black" fill-opacity="0.2"/>
<path d="M107.375 28.3042L111.278 19.6716H112.169L116.072 28.3042H115.121L111.535 20.2019H111.901L108.315 28.3042H107.375ZM108.912 25.998L109.181 25.2581H114.145L114.413 25.998H108.912ZM110.937 18.9686L112.608 17.4394H113.767L111.791 18.9686H110.937Z" fill="#40515A"/>
<path d="M107.375 28.3042L111.278 19.6716H112.169L116.072 28.3042H115.121L111.535 20.2019H111.901L108.315 28.3042H107.375ZM108.912 25.998L109.181 25.2581H114.145L114.413 25.998H108.912ZM110.937 18.9686L112.608 17.4394H113.767L111.791 18.9686H110.937Z" fill="black" fill-opacity="0.2"/>
<path d="M121.11 28.3782C120.459 28.3782 119.858 28.2713 119.305 28.0575C118.76 27.8355 118.284 27.5272 117.878 27.1326C117.479 26.738 117.166 26.2735 116.938 25.7391C116.719 25.2047 116.609 24.6209 116.609 23.9879C116.609 23.3548 116.719 22.7711 116.938 22.2367C117.166 21.7023 117.483 21.2378 117.89 20.8431C118.296 20.4485 118.772 20.1443 119.317 19.9306C119.87 19.7086 120.471 19.5976 121.122 19.5976C121.773 19.5976 122.366 19.7004 122.903 19.9059C123.448 20.1114 123.911 20.4239 124.293 20.8431L123.732 21.4228C123.374 21.061 122.98 20.802 122.549 20.6458C122.118 20.4896 121.655 20.4115 121.159 20.4115C120.63 20.4115 120.142 20.502 119.695 20.6828C119.256 20.8555 118.87 21.1062 118.536 21.4351C118.211 21.7557 117.955 22.1339 117.768 22.5697C117.589 22.9972 117.499 23.4699 117.499 23.9879C117.499 24.4976 117.589 24.9703 117.768 25.4061C117.955 25.8418 118.211 26.2241 118.536 26.553C118.87 26.8736 119.256 27.1244 119.695 27.3053C120.142 27.4779 120.626 27.5642 121.146 27.5642C121.634 27.5642 122.094 27.4902 122.525 27.3423C122.964 27.1943 123.366 26.9435 123.732 26.59L124.245 27.2806C123.838 27.6423 123.362 27.9178 122.817 28.1069C122.273 28.2877 121.703 28.3782 121.11 28.3782ZM123.379 27.1696V23.9879H124.245V27.2806L123.379 27.1696Z" fill="#40515A"/>
<path d="M121.11 28.3782C120.459 28.3782 119.858 28.2713 119.305 28.0575C118.76 27.8355 118.284 27.5272 117.878 27.1326C117.479 26.738 117.166 26.2735 116.938 25.7391C116.719 25.2047 116.609 24.6209 116.609 23.9879C116.609 23.3548 116.719 22.7711 116.938 22.2367C117.166 21.7023 117.483 21.2378 117.89 20.8431C118.296 20.4485 118.772 20.1443 119.317 19.9306C119.87 19.7086 120.471 19.5976 121.122 19.5976C121.773 19.5976 122.366 19.7004 122.903 19.9059C123.448 20.1114 123.911 20.4239 124.293 20.8431L123.732 21.4228C123.374 21.061 122.98 20.802 122.549 20.6458C122.118 20.4896 121.655 20.4115 121.159 20.4115C120.63 20.4115 120.142 20.502 119.695 20.6828C119.256 20.8555 118.87 21.1062 118.536 21.4351C118.211 21.7557 117.955 22.1339 117.768 22.5697C117.589 22.9972 117.499 23.4699 117.499 23.9879C117.499 24.4976 117.589 24.9703 117.768 25.4061C117.955 25.8418 118.211 26.2241 118.536 26.553C118.87 26.8736 119.256 27.1244 119.695 27.3053C120.142 27.4779 120.626 27.5642 121.146 27.5642C121.634 27.5642 122.094 27.4902 122.525 27.3423C122.964 27.1943 123.366 26.9435 123.732 26.59L124.245 27.2806C123.838 27.6423 123.362 27.9178 122.817 28.1069C122.273 28.2877 121.703 28.3782 121.11 28.3782ZM123.379 27.1696V23.9879H124.245V27.2806L123.379 27.1696Z" fill="black" fill-opacity="0.2"/>
<path d="M127.604 23.5316H132.117V24.3085H127.604V23.5316ZM127.702 27.5149H132.837V28.3042H126.799V19.6716H132.654V20.4608H127.702V27.5149Z" fill="#40515A"/>
<path d="M127.604 23.5316H132.117V24.3085H127.604V23.5316ZM127.702 27.5149H132.837V28.3042H126.799V19.6716H132.654V20.4608H127.702V27.5149Z" fill="black" fill-opacity="0.2"/>
<path d="M137.312 28.3782C136.678 28.3782 136.068 28.2754 135.483 28.0699C134.905 27.8561 134.458 27.5848 134.141 27.2559L134.495 26.553C134.796 26.849 135.198 27.0997 135.702 27.3053C136.215 27.5026 136.751 27.6012 137.312 27.6012C137.849 27.6012 138.284 27.5355 138.617 27.4039C138.959 27.2642 139.207 27.0792 139.362 26.849C139.524 26.6188 139.605 26.3639 139.605 26.0844C139.605 25.7473 139.508 25.476 139.313 25.2704C139.126 25.0649 138.878 24.9046 138.569 24.7895C138.26 24.6662 137.918 24.5593 137.544 24.4688C137.17 24.3784 136.796 24.2839 136.422 24.1852C136.048 24.0783 135.702 23.9385 135.385 23.7659C135.076 23.5932 134.824 23.3672 134.629 23.0876C134.442 22.7999 134.348 22.4258 134.348 21.9654C134.348 21.5379 134.458 21.1473 134.678 20.7938C134.905 20.4321 135.251 20.1443 135.715 19.9306C136.178 19.7086 136.772 19.5976 137.495 19.5976C137.975 19.5976 138.451 19.6675 138.922 19.8072C139.394 19.9388 139.801 20.1238 140.142 20.3622L139.837 21.0898C139.471 20.8431 139.081 20.6623 138.666 20.5472C138.26 20.4321 137.865 20.3745 137.483 20.3745C136.971 20.3745 136.548 20.4444 136.215 20.5842C135.881 20.7239 135.633 20.913 135.471 21.1515C135.316 21.3817 135.239 21.6447 135.239 21.9407C135.239 22.2778 135.332 22.5491 135.519 22.7547C135.715 22.9602 135.967 23.1205 136.276 23.2356C136.593 23.3507 136.938 23.4535 137.312 23.5439C137.686 23.6344 138.056 23.733 138.422 23.8399C138.796 23.9468 139.138 24.0865 139.447 24.2592C139.764 24.4236 140.016 24.6456 140.203 24.9251C140.398 25.2047 140.496 25.5705 140.496 26.0227C140.496 26.442 140.382 26.8325 140.154 27.1943C139.927 27.5478 139.577 27.8355 139.105 28.0575C138.642 28.2713 138.044 28.3782 137.312 28.3782Z" fill="#40515A"/>
<path d="M137.312 28.3782C136.678 28.3782 136.068 28.2754 135.483 28.0699C134.905 27.8561 134.458 27.5848 134.141 27.2559L134.495 26.553C134.796 26.849 135.198 27.0997 135.702 27.3053C136.215 27.5026 136.751 27.6012 137.312 27.6012C137.849 27.6012 138.284 27.5355 138.617 27.4039C138.959 27.2642 139.207 27.0792 139.362 26.849C139.524 26.6188 139.605 26.3639 139.605 26.0844C139.605 25.7473 139.508 25.476 139.313 25.2704C139.126 25.0649 138.878 24.9046 138.569 24.7895C138.26 24.6662 137.918 24.5593 137.544 24.4688C137.17 24.3784 136.796 24.2839 136.422 24.1852C136.048 24.0783 135.702 23.9385 135.385 23.7659C135.076 23.5932 134.824 23.3672 134.629 23.0876C134.442 22.7999 134.348 22.4258 134.348 21.9654C134.348 21.5379 134.458 21.1473 134.678 20.7938C134.905 20.4321 135.251 20.1443 135.715 19.9306C136.178 19.7086 136.772 19.5976 137.495 19.5976C137.975 19.5976 138.451 19.6675 138.922 19.8072C139.394 19.9388 139.801 20.1238 140.142 20.3622L139.837 21.0898C139.471 20.8431 139.081 20.6623 138.666 20.5472C138.26 20.4321 137.865 20.3745 137.483 20.3745C136.971 20.3745 136.548 20.4444 136.215 20.5842C135.881 20.7239 135.633 20.913 135.471 21.1515C135.316 21.3817 135.239 21.6447 135.239 21.9407C135.239 22.2778 135.332 22.5491 135.519 22.7547C135.715 22.9602 135.967 23.1205 136.276 23.2356C136.593 23.3507 136.938 23.4535 137.312 23.5439C137.686 23.6344 138.056 23.733 138.422 23.8399C138.796 23.9468 139.138 24.0865 139.447 24.2592C139.764 24.4236 140.016 24.6456 140.203 24.9251C140.398 25.2047 140.496 25.5705 140.496 26.0227C140.496 26.442 140.382 26.8325 140.154 27.1943C139.927 27.5478 139.577 27.8355 139.105 28.0575C138.642 28.2713 138.044 28.3782 137.312 28.3782Z" fill="black" fill-opacity="0.2"/>
<path d="M144.817 28.3782C144.182 28.3782 143.572 28.2754 142.987 28.0699C142.41 27.8561 141.962 27.5848 141.645 27.2559L141.999 26.553C142.3 26.849 142.702 27.0997 143.206 27.3053C143.719 27.5026 144.255 27.6012 144.817 27.6012C145.353 27.6012 145.788 27.5355 146.122 27.4039C146.463 27.2642 146.711 27.0792 146.866 26.849C147.028 26.6188 147.11 26.3639 147.11 26.0844C147.11 25.7473 147.012 25.476 146.817 25.2704C146.63 25.0649 146.382 24.9046 146.073 24.7895C145.764 24.6662 145.422 24.5593 145.048 24.4688C144.674 24.3784 144.3 24.2839 143.926 24.1852C143.552 24.0783 143.206 23.9385 142.889 23.7659C142.58 23.5932 142.328 23.3672 142.133 23.0876C141.946 22.7999 141.853 22.4258 141.853 21.9654C141.853 21.5379 141.962 21.1473 142.182 20.7938C142.41 20.4321 142.755 20.1443 143.219 19.9306C143.682 19.7086 144.276 19.5976 144.999 19.5976C145.479 19.5976 145.955 19.6675 146.427 19.8072C146.898 19.9388 147.305 20.1238 147.646 20.3622L147.341 21.0898C146.975 20.8431 146.585 20.6623 146.17 20.5472C145.764 20.4321 145.369 20.3745 144.987 20.3745C144.475 20.3745 144.052 20.4444 143.719 20.5842C143.385 20.7239 143.137 20.913 142.975 21.1515C142.82 21.3817 142.743 21.6447 142.743 21.9407C142.743 22.2778 142.837 22.5491 143.024 22.7547C143.219 22.9602 143.471 23.1205 143.78 23.2356C144.097 23.3507 144.442 23.4535 144.817 23.5439C145.191 23.6344 145.561 23.733 145.926 23.8399C146.301 23.9468 146.642 24.0865 146.951 24.2592C147.268 24.4236 147.52 24.6456 147.707 24.9251C147.902 25.2047 148 25.5705 148 26.0227C148 26.442 147.886 26.8325 147.658 27.1943C147.431 27.5478 147.081 27.8355 146.61 28.0575C146.146 28.2713 145.548 28.3782 144.817 28.3782Z" fill="#40515A"/>
<path d="M144.817 28.3782C144.182 28.3782 143.572 28.2754 142.987 28.0699C142.41 27.8561 141.962 27.5848 141.645 27.2559L141.999 26.553C142.3 26.849 142.702 27.0997 143.206 27.3053C143.719 27.5026 144.255 27.6012 144.817 27.6012C145.353 27.6012 145.788 27.5355 146.122 27.4039C146.463 27.2642 146.711 27.0792 146.866 26.849C147.028 26.6188 147.11 26.3639 147.11 26.0844C147.11 25.7473 147.012 25.476 146.817 25.2704C146.63 25.0649 146.382 24.9046 146.073 24.7895C145.764 24.6662 145.422 24.5593 145.048 24.4688C144.674 24.3784 144.3 24.2839 143.926 24.1852C143.552 24.0783 143.206 23.9385 142.889 23.7659C142.58 23.5932 142.328 23.3672 142.133 23.0876C141.946 22.7999 141.853 22.4258 141.853 21.9654C141.853 21.5379 141.962 21.1473 142.182 20.7938C142.41 20.4321 142.755 20.1443 143.219 19.9306C143.682 19.7086 144.276 19.5976 144.999 19.5976C145.479 19.5976 145.955 19.6675 146.427 19.8072C146.898 19.9388 147.305 20.1238 147.646 20.3622L147.341 21.0898C146.975 20.8431 146.585 20.6623 146.17 20.5472C145.764 20.4321 145.369 20.3745 144.987 20.3745C144.475 20.3745 144.052 20.4444 143.719 20.5842C143.385 20.7239 143.137 20.913 142.975 21.1515C142.82 21.3817 142.743 21.6447 142.743 21.9407C142.743 22.2778 142.837 22.5491 143.024 22.7547C143.219 22.9602 143.471 23.1205 143.78 23.2356C144.097 23.3507 144.442 23.4535 144.817 23.5439C145.191 23.6344 145.561 23.733 145.926 23.8399C146.301 23.9468 146.642 24.0865 146.951 24.2592C147.268 24.4236 147.52 24.6456 147.707 24.9251C147.902 25.2047 148 25.5705 148 26.0227C148 26.442 147.886 26.8325 147.658 27.1943C147.431 27.5478 147.081 27.8355 146.61 28.0575C146.146 28.2713 145.548 28.3782 144.817 28.3782Z" fill="black" fill-opacity="0.2"/>
</svg>
