<svg width="620" height="409" viewBox="0 0 620 409" fill="none" xmlns="http://www.w3.org/2000/svg">
<path d="M3.76234 405C2.88859 405 2.24753 404.8 1.83915 404.401C1.43076 403.993 1.22657 403.347 1.22657 402.464V397.563C1.22657 396.68 1.43076 396.039 1.83915 395.64C2.24753 395.232 2.88859 395.028 3.76234 395.028H7.23833C8.11208 395.028 8.75314 395.232 9.16152 395.64C9.5699 396.039 9.77409 396.68 9.77409 397.563V402.464C9.77409 403.347 9.5699 403.993 9.16152 404.401C8.75314 404.8 8.11208 405 7.23833 405H3.76234ZM4.07575 403.988H6.92492C7.53274 403.988 7.96487 403.865 8.22129 403.618C8.47772 403.361 8.60593 402.925 8.60593 402.307V397.72C8.60593 397.103 8.47772 396.671 8.22129 396.424C7.96487 396.167 7.53274 396.039 6.92492 396.039H4.07575C3.46792 396.039 3.0358 396.167 2.77937 396.424C2.52295 396.671 2.39474 397.103 2.39474 397.72V402.307C2.39474 402.925 2.52295 403.361 2.77937 403.618C3.0358 403.865 3.46792 403.988 4.07575 403.988Z" fill="#C2C2C2"/>
<path d="M59.2364 404.017H62.6127V405H54.0082V404.017H58.0682V396.096L54.4355 396.466V395.455L58.695 395.027H59.2364V404.017ZM66.6408 405C65.767 405 65.126 404.8 64.7176 404.401C64.3092 403.993 64.105 403.347 64.105 402.464V397.563C64.105 396.68 64.3092 396.039 64.7176 395.64C65.126 395.232 65.767 395.027 66.6408 395.027H70.1168C70.9905 395.027 71.6316 395.232 72.04 395.64C72.4484 396.039 72.6525 396.68 72.6525 397.563V402.464C72.6525 403.347 72.4484 403.993 72.04 404.401C71.6316 404.8 70.9905 405 70.1168 405H66.6408ZM66.9542 403.988H69.8034C70.4112 403.988 70.8433 403.865 71.0997 403.618C71.3562 403.361 71.4844 402.924 71.4844 402.307V397.72C71.4844 397.103 71.3562 396.67 71.0997 396.423C70.8433 396.167 70.4112 396.039 69.8034 396.039H66.9542C66.3464 396.039 65.9143 396.167 65.6578 396.423C65.4014 396.67 65.2732 397.103 65.2732 397.72V402.307C65.2732 402.924 65.4014 403.361 65.6578 403.618C65.9143 403.865 66.3464 403.988 66.9542 403.988ZM77.353 405C76.4793 405 75.8382 404.8 75.4298 404.401C75.0214 403.993 74.8172 403.347 74.8172 402.464V397.563C74.8172 396.68 75.0214 396.039 75.4298 395.64C75.8382 395.232 76.4793 395.027 77.353 395.027H80.829C81.7028 395.027 82.3438 395.232 82.7522 395.64C83.1606 396.039 83.3648 396.68 83.3648 397.563V402.464C83.3648 403.347 83.1606 403.993 82.7522 404.401C82.3438 404.8 81.7028 405 80.829 405H77.353ZM77.6664 403.988H80.5156C81.1234 403.988 81.5555 403.865 81.812 403.618C82.0684 403.361 82.1966 402.924 82.1966 402.307V397.72C82.1966 397.103 82.0684 396.67 81.812 396.423C81.5555 396.167 81.1234 396.039 80.5156 396.039H77.6664C77.0586 396.039 76.6265 396.167 76.37 396.423C76.1136 396.67 75.9854 397.103 75.9854 397.72V402.307C75.9854 402.924 76.1136 403.361 76.37 403.618C76.6265 403.865 77.0586 403.988 77.6664 403.988Z" fill="#C2C2C2"/>
<path d="M123.886 404.999H115.481V402.107C115.481 401.471 115.628 401.006 115.923 400.711C116.227 400.407 116.716 400.198 117.39 400.084L121.721 399.344C122.148 399.268 122.443 399.144 122.604 398.973C122.775 398.802 122.861 398.517 122.861 398.119V397.15C122.861 396.732 122.775 396.438 122.604 396.267C122.433 396.096 122.139 396.01 121.721 396.01H117.96C117.542 396.01 117.248 396.096 117.077 396.267C116.906 396.438 116.82 396.732 116.82 397.15V397.72H115.681V396.936C115.681 396.281 115.833 395.801 116.136 395.497C116.45 395.184 116.934 395.027 117.59 395.027H122.12C122.775 395.027 123.255 395.184 123.559 395.497C123.872 395.801 124.029 396.281 124.029 396.936V398.289C124.029 398.926 123.877 399.396 123.573 399.7C123.278 399.994 122.794 400.198 122.12 400.312L117.789 401.053C117.362 401.129 117.062 401.253 116.891 401.424C116.73 401.585 116.649 401.87 116.649 402.278V403.988H123.886V404.999ZM128.729 404.999C127.855 404.999 127.214 404.8 126.806 404.401C126.398 403.993 126.193 403.347 126.193 402.464V397.563C126.193 396.68 126.398 396.039 126.806 395.64C127.214 395.231 127.855 395.027 128.729 395.027H132.205C133.079 395.027 133.72 395.231 134.128 395.64C134.537 396.039 134.741 396.68 134.741 397.563V402.464C134.741 403.347 134.537 403.993 134.128 404.401C133.72 404.8 133.079 404.999 132.205 404.999H128.729ZM129.043 403.988H131.892C132.5 403.988 132.932 403.864 133.188 403.617C133.445 403.361 133.573 402.924 133.573 402.307V397.72C133.573 397.102 133.445 396.67 133.188 396.423C132.932 396.167 132.5 396.039 131.892 396.039H129.043C128.435 396.039 128.003 396.167 127.746 396.423C127.49 396.67 127.362 397.102 127.362 397.72V402.307C127.362 402.924 127.49 403.361 127.746 403.617C128.003 403.864 128.435 403.988 129.043 403.988ZM139.441 404.999C138.568 404.999 137.927 404.8 137.518 404.401C137.11 403.993 136.906 403.347 136.906 402.464V397.563C136.906 396.68 137.11 396.039 137.518 395.64C137.927 395.231 138.568 395.027 139.441 395.027H142.917C143.791 395.027 144.432 395.231 144.841 395.64C145.249 396.039 145.453 396.68 145.453 397.563V402.464C145.453 403.347 145.249 403.993 144.841 404.401C144.432 404.8 143.791 404.999 142.917 404.999H139.441ZM139.755 403.988H142.604C143.212 403.988 143.644 403.864 143.9 403.617C144.157 403.361 144.285 402.924 144.285 402.307V397.72C144.285 397.102 144.157 396.67 143.9 396.423C143.644 396.167 143.212 396.039 142.604 396.039H139.755C139.147 396.039 138.715 396.167 138.458 396.423C138.202 396.67 138.074 397.102 138.074 397.72V402.307C138.074 402.924 138.202 403.361 138.458 403.617C138.715 403.864 139.147 403.988 139.755 403.988Z" fill="#C2C2C2"/>
<path d="M186.121 399.757C186.805 399.966 187.147 400.545 187.147 401.495V403.091C187.147 403.746 186.99 404.23 186.677 404.544C186.373 404.848 185.893 405 185.238 405H180.451C179.796 405 179.312 404.848 178.998 404.544C178.694 404.23 178.542 403.746 178.542 403.091V401.937H179.682V402.905C179.682 403.323 179.768 403.618 179.939 403.789C180.11 403.96 180.404 404.045 180.822 404.045H184.839C185.257 404.045 185.551 403.96 185.722 403.789C185.893 403.618 185.979 403.323 185.979 402.905V401.367C185.979 400.949 185.893 400.655 185.722 400.484C185.551 400.313 185.257 400.227 184.839 400.227H182.118V399.315H184.697C185.115 399.315 185.409 399.23 185.58 399.059C185.751 398.888 185.836 398.594 185.836 398.176V397.122C185.836 396.704 185.751 396.409 185.58 396.238C185.409 396.067 185.115 395.982 184.697 395.982H180.964C180.546 395.982 180.252 396.067 180.081 396.238C179.91 396.409 179.825 396.704 179.825 397.122V397.976H178.685V396.936C178.685 396.281 178.837 395.801 179.141 395.498C179.454 395.184 179.939 395.027 180.594 395.027H185.096C185.751 395.027 186.231 395.184 186.534 395.498C186.848 395.801 187.005 396.281 187.005 396.936V398.062C187.005 398.936 186.71 399.501 186.121 399.757ZM191.819 405C190.945 405 190.304 404.8 189.896 404.401C189.487 403.993 189.283 403.347 189.283 402.464V397.563C189.283 396.68 189.487 396.039 189.896 395.64C190.304 395.232 190.945 395.027 191.819 395.027H195.295C196.169 395.027 196.81 395.232 197.218 395.64C197.627 396.039 197.831 396.68 197.831 397.563V402.464C197.831 403.347 197.627 403.993 197.218 404.401C196.81 404.8 196.169 405 195.295 405H191.819ZM192.132 403.988H194.982C195.589 403.988 196.022 403.865 196.278 403.618C196.534 403.361 196.663 402.924 196.663 402.307V397.72C196.663 397.103 196.534 396.67 196.278 396.423C196.022 396.167 195.589 396.039 194.982 396.039H192.132C191.525 396.039 191.092 396.167 190.836 396.423C190.58 396.67 190.451 397.103 190.451 397.72V402.307C190.451 402.924 190.58 403.361 190.836 403.618C191.092 403.865 191.525 403.988 192.132 403.988ZM202.531 405C201.657 405 201.016 404.8 200.608 404.401C200.2 403.993 199.995 403.347 199.995 402.464V397.563C199.995 396.68 200.2 396.039 200.608 395.64C201.016 395.232 201.657 395.027 202.531 395.027H206.007C206.881 395.027 207.522 395.232 207.93 395.64C208.339 396.039 208.543 396.68 208.543 397.563V402.464C208.543 403.347 208.339 403.993 207.93 404.401C207.522 404.8 206.881 405 206.007 405H202.531ZM202.845 403.988H205.694C206.302 403.988 206.734 403.865 206.99 403.618C207.247 403.361 207.375 402.924 207.375 402.307V397.72C207.375 397.103 207.247 396.67 206.99 396.423C206.734 396.167 206.302 396.039 205.694 396.039H202.845C202.237 396.039 201.805 396.167 201.548 396.423C201.292 396.67 201.164 397.103 201.164 397.72V402.307C201.164 402.924 201.292 403.361 201.548 403.618C201.805 403.865 202.237 403.988 202.845 403.988Z" fill="#C2C2C2"/>
<path d="M246.804 401.495V402.435H244.467V404.999H243.328V402.435H236.917V401.651L243.171 395.027H244.467V401.495H246.804ZM238.242 401.495H243.328V396.124L238.242 401.495ZM251.052 404.999C250.178 404.999 249.537 404.8 249.129 404.401C248.721 403.993 248.516 403.347 248.516 402.464V397.563C248.516 396.68 248.721 396.039 249.129 395.64C249.537 395.231 250.178 395.027 251.052 395.027H254.528C255.402 395.027 256.043 395.231 256.451 395.64C256.86 396.039 257.064 396.68 257.064 397.563V402.464C257.064 403.347 256.86 403.993 256.451 404.401C256.043 404.8 255.402 404.999 254.528 404.999H251.052ZM251.366 403.988H254.215C254.823 403.988 255.255 403.864 255.511 403.617C255.768 403.361 255.896 402.924 255.896 402.307V397.72C255.896 397.102 255.768 396.67 255.511 396.423C255.255 396.167 254.823 396.039 254.215 396.039H251.366C250.758 396.039 250.326 396.167 250.069 396.423C249.813 396.67 249.685 397.102 249.685 397.72V402.307C249.685 402.924 249.813 403.361 250.069 403.617C250.326 403.864 250.758 403.988 251.366 403.988ZM261.764 404.999C260.891 404.999 260.25 404.8 259.841 404.401C259.433 403.993 259.229 403.347 259.229 402.464V397.563C259.229 396.68 259.433 396.039 259.841 395.64C260.25 395.231 260.891 395.027 261.764 395.027H265.24C266.114 395.027 266.755 395.231 267.164 395.64C267.572 396.039 267.776 396.68 267.776 397.563V402.464C267.776 403.347 267.572 403.993 267.164 404.401C266.755 404.8 266.114 404.999 265.24 404.999H261.764ZM262.078 403.988H264.927C265.535 403.988 265.967 403.864 266.223 403.617C266.48 403.361 266.608 402.924 266.608 402.307V397.72C266.608 397.102 266.48 396.67 266.223 396.423C265.967 396.167 265.535 396.039 264.927 396.039H262.078C261.47 396.039 261.038 396.167 260.781 396.423C260.525 396.67 260.397 397.102 260.397 397.72V402.307C260.397 402.924 260.525 403.361 260.781 403.617C261.038 403.864 261.47 403.988 262.078 403.988Z" fill="#C2C2C2"/>
<path d="M299.433 405V403.988H305.189C305.607 403.988 305.901 403.903 306.072 403.732C306.243 403.561 306.328 403.266 306.328 402.848V401.21C306.328 400.792 306.243 400.498 306.072 400.327C305.901 400.156 305.607 400.07 305.189 400.07H299.433V395.027H307.069V396.039H300.602V399.087H305.588C306.243 399.087 306.723 399.244 307.027 399.558C307.34 399.862 307.497 400.341 307.497 400.996V403.091C307.497 403.746 307.34 404.23 307.027 404.544C306.723 404.848 306.243 405 305.588 405H299.433ZM312.193 405C311.319 405 310.678 404.8 310.27 404.401C309.862 403.993 309.657 403.347 309.657 402.464V397.563C309.657 396.68 309.862 396.039 310.27 395.64C310.678 395.232 311.319 395.027 312.193 395.027H315.669C316.543 395.027 317.184 395.232 317.592 395.64C318.001 396.039 318.205 396.68 318.205 397.563V402.464C318.205 403.347 318.001 403.993 317.592 404.401C317.184 404.8 316.543 405 315.669 405H312.193ZM312.507 403.988H315.356C315.964 403.988 316.396 403.865 316.652 403.618C316.909 403.361 317.037 402.924 317.037 402.307V397.72C317.037 397.103 316.909 396.67 316.652 396.423C316.396 396.167 315.964 396.039 315.356 396.039H312.507C311.899 396.039 311.467 396.167 311.21 396.423C310.954 396.67 310.826 397.103 310.826 397.72V402.307C310.826 402.924 310.954 403.361 311.21 403.618C311.467 403.865 311.899 403.988 312.507 403.988ZM322.905 405C322.032 405 321.391 404.8 320.982 404.401C320.574 403.993 320.37 403.347 320.37 402.464V397.563C320.37 396.68 320.574 396.039 320.982 395.64C321.391 395.232 322.032 395.027 322.905 395.027H326.381C327.255 395.027 327.896 395.232 328.305 395.64C328.713 396.039 328.917 396.68 328.917 397.563V402.464C328.917 403.347 328.713 403.993 328.305 404.401C327.896 404.8 327.255 405 326.381 405H322.905ZM323.219 403.988H326.068C326.676 403.988 327.108 403.865 327.364 403.618C327.621 403.361 327.749 402.924 327.749 402.307V397.72C327.749 397.103 327.621 396.67 327.364 396.423C327.108 396.167 326.676 396.039 326.068 396.039H323.219C322.611 396.039 322.179 396.167 321.922 396.423C321.666 396.67 321.538 397.103 321.538 397.72V402.307C321.538 402.924 321.666 403.361 321.922 403.618C322.179 403.865 322.611 403.988 323.219 403.988Z" fill="#C2C2C2"/>
<path d="M371.422 399.03C372.068 399.03 372.548 399.187 372.861 399.5C373.175 399.804 373.331 400.284 373.331 400.939V403.09C373.331 403.746 373.175 404.23 372.861 404.543C372.557 404.847 372.078 404.999 371.422 404.999H366.693C366.038 404.999 365.553 404.847 365.24 404.543C364.936 404.23 364.784 403.746 364.784 403.09V397.563C364.784 396.68 364.988 396.039 365.396 395.64C365.805 395.231 366.446 395.027 367.32 395.027H372.904V396.039H367.633C367.025 396.039 366.593 396.167 366.337 396.423C366.08 396.67 365.952 397.102 365.952 397.72V399.529C366.246 399.196 366.721 399.03 367.377 399.03H371.422ZM372.163 402.877V401.139C372.163 400.721 372.078 400.426 371.907 400.255C371.736 400.084 371.441 399.999 371.024 399.999H367.092C366.674 399.999 366.379 400.084 366.208 400.255C366.038 400.426 365.952 400.721 365.952 401.139V402.877C365.952 403.295 366.038 403.589 366.208 403.76C366.379 403.931 366.674 404.016 367.092 404.016H371.024C371.441 404.016 371.736 403.931 371.907 403.76C372.078 403.589 372.163 403.295 372.163 402.877ZM378.032 404.999C377.158 404.999 376.517 404.8 376.109 404.401C375.7 403.993 375.496 403.347 375.496 402.464V397.563C375.496 396.68 375.7 396.039 376.109 395.64C376.517 395.231 377.158 395.027 378.032 395.027H381.508C382.382 395.027 383.023 395.231 383.431 395.64C383.839 396.039 384.044 396.68 384.044 397.563V402.464C384.044 403.347 383.839 403.993 383.431 404.401C383.023 404.8 382.382 404.999 381.508 404.999H378.032ZM378.345 403.988H381.194C381.802 403.988 382.234 403.864 382.491 403.617C382.747 403.361 382.875 402.924 382.875 402.307V397.72C382.875 397.102 382.747 396.67 382.491 396.423C382.234 396.167 381.802 396.039 381.194 396.039H378.345C377.737 396.039 377.305 396.167 377.049 396.423C376.792 396.67 376.664 397.102 376.664 397.72V402.307C376.664 402.924 376.792 403.361 377.049 403.617C377.305 403.864 377.737 403.988 378.345 403.988ZM388.744 404.999C387.87 404.999 387.229 404.8 386.821 404.401C386.413 403.993 386.208 403.347 386.208 402.464V397.563C386.208 396.68 386.413 396.039 386.821 395.64C387.229 395.231 387.87 395.027 388.744 395.027H392.22C393.094 395.027 393.735 395.231 394.143 395.64C394.552 396.039 394.756 396.68 394.756 397.563V402.464C394.756 403.347 394.552 403.993 394.143 404.401C393.735 404.8 393.094 404.999 392.22 404.999H388.744ZM389.058 403.988H391.907C392.514 403.988 392.947 403.864 393.203 403.617C393.459 403.361 393.588 402.924 393.588 402.307V397.72C393.588 397.102 393.459 396.67 393.203 396.423C392.947 396.167 392.514 396.039 391.907 396.039H389.058C388.45 396.039 388.018 396.167 387.761 396.423C387.505 396.67 387.376 397.102 387.376 397.72V402.307C387.376 402.924 387.505 403.361 387.761 403.617C388.018 403.864 388.45 403.988 389.058 403.988Z" fill="#C2C2C2"/>
<path d="M427.314 395.027H436.204V395.911L432.471 400.099C432.129 400.488 431.906 400.854 431.802 401.196C431.697 401.538 431.645 402.017 431.645 402.635V405H430.463V402.606C430.463 401.894 430.529 401.324 430.662 400.897C430.795 400.469 431.066 400.032 431.474 399.586L434.637 396.067H427.314V395.027ZM440.225 405C439.351 405 438.71 404.8 438.302 404.401C437.894 403.993 437.689 403.347 437.689 402.464V397.563C437.689 396.68 437.894 396.039 438.302 395.64C438.71 395.232 439.351 395.027 440.225 395.027H443.701C444.575 395.027 445.216 395.232 445.624 395.64C446.033 396.039 446.237 396.68 446.237 397.563V402.464C446.237 403.347 446.033 403.993 445.624 404.401C445.216 404.8 444.575 405 443.701 405H440.225ZM440.539 403.988H443.388C443.996 403.988 444.428 403.865 444.684 403.618C444.941 403.361 445.069 402.924 445.069 402.307V397.72C445.069 397.103 444.941 396.67 444.684 396.423C444.428 396.167 443.996 396.039 443.388 396.039H440.539C439.931 396.039 439.499 396.167 439.242 396.423C438.986 396.67 438.858 397.103 438.858 397.72V402.307C438.858 402.924 438.986 403.361 439.242 403.618C439.499 403.865 439.931 403.988 440.539 403.988ZM450.937 405C450.064 405 449.423 404.8 449.014 404.401C448.606 403.993 448.402 403.347 448.402 402.464V397.563C448.402 396.68 448.606 396.039 449.014 395.64C449.423 395.232 450.064 395.027 450.937 395.027H454.413C455.287 395.027 455.928 395.232 456.337 395.64C456.745 396.039 456.949 396.68 456.949 397.563V402.464C456.949 403.347 456.745 403.993 456.337 404.401C455.928 404.8 455.287 405 454.413 405H450.937ZM451.251 403.988H454.1C454.708 403.988 455.14 403.865 455.396 403.618C455.653 403.361 455.781 402.924 455.781 402.307V397.72C455.781 397.103 455.653 396.67 455.396 396.423C455.14 396.167 454.708 396.039 454.1 396.039H451.251C450.643 396.039 450.211 396.167 449.954 396.423C449.698 396.67 449.57 397.103 449.57 397.72V402.307C449.57 402.924 449.698 403.361 449.954 403.618C450.211 403.865 450.643 403.988 451.251 403.988Z" fill="#C2C2C2"/>
<path d="M495.459 399.757C496.143 399.966 496.485 400.545 496.485 401.495V403.09C496.485 403.746 496.328 404.23 496.015 404.543C495.711 404.847 495.231 404.999 494.576 404.999H489.789C489.134 404.999 488.65 404.847 488.336 404.543C488.032 404.23 487.88 403.746 487.88 403.09V401.495C487.88 400.545 488.222 399.966 488.906 399.757C488.317 399.5 488.023 398.935 488.023 398.062V396.936C488.023 396.281 488.175 395.801 488.479 395.497C488.792 395.184 489.276 395.027 489.932 395.027H494.433C495.089 395.027 495.568 395.184 495.872 395.497C496.186 395.801 496.342 396.281 496.342 396.936V398.062C496.342 398.935 496.048 399.5 495.459 399.757ZM489.191 397.107V398.19C489.191 398.608 489.276 398.902 489.447 399.073C489.618 399.244 489.913 399.329 490.331 399.329H494.035C494.452 399.329 494.747 399.244 494.918 399.073C495.089 398.902 495.174 398.608 495.174 398.19V397.107C495.174 396.689 495.089 396.395 494.918 396.224C494.747 396.053 494.452 395.967 494.035 395.967H490.331C489.913 395.967 489.618 396.053 489.447 396.224C489.276 396.395 489.191 396.689 489.191 397.107ZM495.317 402.919V401.352C495.317 400.934 495.231 400.64 495.06 400.469C494.889 400.298 494.595 400.213 494.177 400.213H490.188C489.77 400.213 489.476 400.298 489.305 400.469C489.134 400.64 489.049 400.934 489.049 401.352V402.919C489.049 403.337 489.134 403.632 489.305 403.803C489.476 403.974 489.77 404.059 490.188 404.059H494.177C494.595 404.059 494.889 403.974 495.06 403.803C495.231 403.632 495.317 403.337 495.317 402.919ZM501.157 404.999C500.283 404.999 499.642 404.8 499.234 404.401C498.825 403.993 498.621 403.347 498.621 402.464V397.563C498.621 396.68 498.825 396.039 499.234 395.64C499.642 395.231 500.283 395.027 501.157 395.027H504.633C505.507 395.027 506.148 395.231 506.556 395.64C506.964 396.039 507.169 396.68 507.169 397.563V402.464C507.169 403.347 506.964 403.993 506.556 404.401C506.148 404.8 505.507 404.999 504.633 404.999H501.157ZM501.47 403.988H504.319C504.927 403.988 505.359 403.864 505.616 403.617C505.872 403.361 506 402.924 506 402.307V397.72C506 397.102 505.872 396.67 505.616 396.423C505.359 396.167 504.927 396.039 504.319 396.039H501.47C500.862 396.039 500.43 396.167 500.174 396.423C499.917 396.67 499.789 397.102 499.789 397.72V402.307C499.789 402.924 499.917 403.361 500.174 403.617C500.43 403.864 500.862 403.988 501.47 403.988ZM511.869 404.999C510.995 404.999 510.354 404.8 509.946 404.401C509.538 403.993 509.333 403.347 509.333 402.464V397.563C509.333 396.68 509.538 396.039 509.946 395.64C510.354 395.231 510.995 395.027 511.869 395.027H515.345C516.219 395.027 516.86 395.231 517.268 395.64C517.677 396.039 517.881 396.68 517.881 397.563V402.464C517.881 403.347 517.677 403.993 517.268 404.401C516.86 404.8 516.219 404.999 515.345 404.999H511.869ZM512.183 403.988H515.032C515.639 403.988 516.072 403.864 516.328 403.617C516.584 403.361 516.713 402.924 516.713 402.307V397.72C516.713 397.102 516.584 396.67 516.328 396.423C516.072 396.167 515.639 396.039 515.032 396.039H512.183C511.575 396.039 511.143 396.167 510.886 396.423C510.63 396.67 510.501 397.102 510.501 397.72V402.307C510.501 402.924 510.63 403.361 510.886 403.617C511.143 403.864 511.575 403.988 512.183 403.988Z" fill="#C2C2C2"/>
<path d="M556.62 395.027C557.275 395.027 557.755 395.184 558.059 395.498C558.372 395.801 558.529 396.281 558.529 396.936V402.464C558.529 403.347 558.324 403.993 557.916 404.401C557.508 404.8 556.867 405 555.993 405H550.409V403.988H555.679C556.287 403.988 556.719 403.865 556.976 403.618C557.232 403.361 557.361 402.924 557.361 402.307V400.598C557.066 400.93 556.591 401.096 555.936 401.096H551.89C551.235 401.096 550.75 400.944 550.437 400.64C550.133 400.327 549.981 399.843 549.981 399.187V396.936C549.981 396.281 550.133 395.801 550.437 395.498C550.75 395.184 551.235 395.027 551.89 395.027H556.62ZM556.221 400.127C556.639 400.127 556.933 400.042 557.104 399.871C557.275 399.7 557.361 399.406 557.361 398.988V397.15C557.361 396.732 557.275 396.438 557.104 396.267C556.933 396.096 556.639 396.01 556.221 396.01H552.289C551.871 396.01 551.577 396.096 551.406 396.267C551.235 396.438 551.149 396.732 551.149 397.15V398.988C551.149 399.406 551.235 399.7 551.406 399.871C551.577 400.042 551.871 400.127 552.289 400.127H556.221ZM563.229 405C562.355 405 561.714 404.8 561.306 404.401C560.898 403.993 560.693 403.347 560.693 402.464V397.563C560.693 396.68 560.898 396.039 561.306 395.64C561.714 395.232 562.355 395.027 563.229 395.027H566.705C567.579 395.027 568.22 395.232 568.628 395.64C569.037 396.039 569.241 396.68 569.241 397.563V402.464C569.241 403.347 569.037 403.993 568.628 404.401C568.22 404.8 567.579 405 566.705 405H563.229ZM563.543 403.988H566.392C567 403.988 567.432 403.865 567.688 403.618C567.945 403.361 568.073 402.924 568.073 402.307V397.72C568.073 397.103 567.945 396.67 567.688 396.423C567.432 396.167 567 396.039 566.392 396.039H563.543C562.935 396.039 562.503 396.167 562.246 396.423C561.99 396.67 561.862 397.103 561.862 397.72V402.307C561.862 402.924 561.99 403.361 562.246 403.618C562.503 403.865 562.935 403.988 563.543 403.988ZM573.941 405C573.068 405 572.427 404.8 572.018 404.401C571.61 403.993 571.406 403.347 571.406 402.464V397.563C571.406 396.68 571.61 396.039 572.018 395.64C572.427 395.232 573.068 395.027 573.941 395.027H577.417C578.291 395.027 578.932 395.232 579.341 395.64C579.749 396.039 579.953 396.68 579.953 397.563V402.464C579.953 403.347 579.749 403.993 579.341 404.401C578.932 404.8 578.291 405 577.417 405H573.941ZM574.255 403.988H577.104C577.712 403.988 578.144 403.865 578.4 403.618C578.657 403.361 578.785 402.924 578.785 402.307V397.72C578.785 397.103 578.657 396.67 578.4 396.423C578.144 396.167 577.712 396.039 577.104 396.039H574.255C573.647 396.039 573.215 396.167 572.958 396.423C572.702 396.67 572.574 397.103 572.574 397.72V402.307C572.574 402.924 572.702 403.361 572.958 403.618C573.215 403.865 573.647 403.988 574.255 403.988Z" fill="#C2C2C2"/>
<line x1="3.05273" y1="375.464" x2="619.695" y2="375.464" stroke="#616161" stroke-width="0.508781"/>
<path d="M17.8074 324.331L5.08789 326.875V375.718H615.625V39.9226L598.326 32.2909H588.151L572.887 25.6768V37.3787L570.344 39.9226V56.7124L568.308 55.6948L565.256 59.2563L554.063 53.6597H544.396L534.729 46.028L532.694 50.0982L527.606 47.5543H520.992L515.904 60.7826L508.781 56.7124V68.4144L504.202 63.8353H498.605V88.7656L493.009 85.2041L485.886 90.2919L478.763 88.7656L471.64 92.8358L466.552 94.871L461.973 99.45L454.85 97.4149L452.815 104.538L439.587 96.3973L437.043 106.064L417.709 99.45L412.621 100.468L402.955 97.4149L385.147 91.3095L382.603 96.3973L375.989 94.871L372.937 139.135L368.357 141.679L366.831 161.521H362.252L357.164 179.329L343.936 175.767L341.392 195.101L331.216 193.066L329.181 237.33L319.515 233.259L317.479 272.944L294.075 267.856L292.549 283.12L275.759 279.558H264.566L252.355 275.488L247.776 277.523L243.706 274.471L230.478 272.944L227.934 281.594L207.583 277.523L206.056 283.12L203.004 285.664L200.46 291.769L157.722 285.664L154.669 294.822L142.968 291.769L140.424 306.524L124.143 304.489L121.599 313.647L112.949 309.068L111.423 313.647L99.2124 310.085L96.1597 317.208L84.4577 312.12L71.2294 310.085H62.5801L47.3167 306.524L46.2991 313.647H43.7552L39.1762 318.735H28.4918L21.3689 317.208L17.8074 324.331Z" fill="url(#paint0_linear_485_716)"/>
<path d="M5.08789 326.875L17.8074 324.331L21.3689 317.208L28.4918 318.735H39.1762L43.7552 313.647H46.2991L47.3167 306.524L62.5801 310.085H71.2294L84.4577 312.12L96.1597 317.208L99.2124 310.085L111.423 313.647L112.949 309.068L121.599 313.647L124.143 304.489L140.424 306.524L142.968 291.769L154.669 294.822L157.722 285.664L200.46 291.769L203.004 285.664L206.056 283.12L207.583 277.523L227.934 281.594L230.478 272.944L243.706 274.471L247.776 277.523L252.355 275.488L264.566 279.558H275.759L292.549 283.12L294.075 267.856L317.479 272.944L319.515 233.259L329.181 237.33L331.216 193.066L341.392 195.101L343.936 175.767L357.164 179.329L362.252 161.521H366.831L368.357 141.679L372.937 139.135L375.989 94.871L382.603 96.3973L385.147 91.3095L402.955 97.4149L412.621 100.468L417.709 99.45L437.043 106.064L439.587 96.3973L452.815 104.538L454.85 97.4149L461.973 99.45L466.552 94.871L471.64 92.8358L478.763 88.7656L485.886 90.2919L493.009 85.2041L498.605 88.7656V63.8353H504.202L508.781 68.4144V56.7124L515.904 60.7826L520.992 47.5543H527.606L532.694 50.0982L534.729 46.028L544.396 53.6597H554.063L565.256 59.2563L568.308 55.6948L570.344 56.7124V39.9226L572.887 37.3787V25.6768L588.151 32.2909H598.326L615.625 39.9226" stroke="#EB3000" stroke-width="1.01756"/>
<g filter="url(#filter0_b_485_716)">
<path d="M136.354 266.839H150.599V282.103L143.476 289.734L136.354 282.103V266.839Z" fill="#EB3000" fill-opacity="0.5"/>
</g>
<path d="M145.465 275.198C146.043 275.263 146.458 275.417 146.71 275.662C146.971 275.898 147.101 276.288 147.101 276.834V278.238C147.101 278.8 146.967 279.215 146.698 279.484C146.438 279.744 146.026 279.874 145.465 279.874H143.767V281.095H143.01V279.874H141.313C140.751 279.874 140.336 279.744 140.068 279.484C139.807 279.215 139.677 278.8 139.677 278.238V277.493H140.654V278.067C140.654 278.425 140.727 278.678 140.874 278.824C141.02 278.971 141.272 279.044 141.631 279.044H145.123C145.481 279.044 145.733 278.971 145.88 278.824C146.026 278.678 146.1 278.425 146.1 278.067V277.029C146.1 276.687 146.031 276.451 145.892 276.321C145.754 276.183 145.497 276.093 145.123 276.052L141.435 275.649C140.857 275.584 140.438 275.434 140.178 275.198C139.925 274.953 139.799 274.559 139.799 274.013V272.963C139.799 272.401 139.929 271.99 140.19 271.73C140.458 271.461 140.874 271.327 141.435 271.327H143.01V270.106H143.767V271.327H145.294C145.856 271.327 146.267 271.461 146.527 271.73C146.796 271.99 146.93 272.401 146.93 272.963V273.512H145.953V273.134C145.953 272.776 145.88 272.523 145.733 272.377C145.587 272.23 145.335 272.157 144.976 272.157H141.777C141.419 272.157 141.167 272.23 141.02 272.377C140.874 272.523 140.8 272.776 140.8 273.134V273.818C140.8 274.168 140.869 274.408 141.008 274.538C141.154 274.668 141.411 274.754 141.777 274.795L145.465 275.198Z" fill="white"/>
<g filter="url(#filter1_b_485_716)">
<path d="M287.969 243.435H302.215V258.698L295.092 266.33L287.969 258.698V243.435Z" fill="#EB3000" fill-opacity="0.5"/>
</g>
<path d="M297.08 251.794C297.658 251.859 298.073 252.013 298.326 252.258C298.586 252.494 298.716 252.884 298.716 253.43V254.834C298.716 255.396 298.582 255.811 298.313 256.079C298.053 256.34 297.642 256.47 297.08 256.47H295.383V257.691H294.626V256.47H292.928C292.367 256.47 291.952 256.34 291.683 256.079C291.422 255.811 291.292 255.396 291.292 254.834V254.089H292.269V254.663C292.269 255.021 292.342 255.274 292.489 255.42C292.635 255.567 292.888 255.64 293.246 255.64H296.738C297.096 255.64 297.349 255.567 297.495 255.42C297.642 255.274 297.715 255.021 297.715 254.663V253.625C297.715 253.283 297.646 253.047 297.507 252.917C297.369 252.778 297.113 252.689 296.738 252.648L293.05 252.245C292.472 252.18 292.053 252.03 291.793 251.794C291.54 251.549 291.414 251.154 291.414 250.609V249.559C291.414 248.997 291.544 248.586 291.805 248.326C292.074 248.057 292.489 247.923 293.05 247.923H294.626V246.702H295.383V247.923H296.909C297.471 247.923 297.882 248.057 298.142 248.326C298.411 248.586 298.545 248.997 298.545 249.559V250.108H297.568V249.73C297.568 249.372 297.495 249.119 297.349 248.973C297.202 248.826 296.95 248.753 296.592 248.753H293.392C293.034 248.753 292.782 248.826 292.635 248.973C292.489 249.119 292.416 249.372 292.416 249.73V250.414C292.416 250.764 292.485 251.004 292.623 251.134C292.77 251.264 293.026 251.35 293.392 251.391L297.08 251.794Z" fill="white"/>
<g filter="url(#filter2_b_485_716)">
<path d="M312.391 209.855H326.636V225.119L319.514 232.751L312.391 225.119V209.855Z" fill="#EB3000" fill-opacity="0.5"/>
</g>
<path d="M321.502 218.214C322.08 218.279 322.495 218.434 322.747 218.678C323.008 218.914 323.138 219.305 323.138 219.85V221.254C323.138 221.816 323.004 222.231 322.735 222.5C322.475 222.76 322.064 222.891 321.502 222.891H319.805V224.112H319.048V222.891H317.35C316.789 222.891 316.373 222.76 316.105 222.5C315.844 222.231 315.714 221.816 315.714 221.254V220.51H316.691V221.083C316.691 221.442 316.764 221.694 316.911 221.841C317.057 221.987 317.31 222.06 317.668 222.06H321.16C321.518 222.06 321.771 221.987 321.917 221.841C322.064 221.694 322.137 221.442 322.137 221.083V220.046C322.137 219.704 322.068 219.468 321.929 219.337C321.791 219.199 321.534 219.109 321.16 219.069L317.472 218.666C316.894 218.601 316.475 218.45 316.215 218.214C315.962 217.97 315.836 217.575 315.836 217.029V215.979C315.836 215.418 315.966 215.007 316.227 214.746C316.495 214.477 316.911 214.343 317.472 214.343H319.048V213.122H319.805V214.343H321.331C321.893 214.343 322.304 214.477 322.564 214.746C322.833 215.007 322.967 215.418 322.967 215.979V216.529H321.99V216.15C321.99 215.792 321.917 215.54 321.771 215.393C321.624 215.247 321.372 215.173 321.013 215.173H317.814C317.456 215.173 317.204 215.247 317.057 215.393C316.911 215.54 316.837 215.792 316.837 216.15V216.834C316.837 217.184 316.907 217.424 317.045 217.555C317.192 217.685 317.448 217.77 317.814 217.811L321.502 218.214Z" fill="white"/>
<g filter="url(#filter3_b_485_716)">
<path d="M324.602 169.153H338.847V184.416L331.724 192.048L324.602 184.416V169.153Z" fill="#EB3000" fill-opacity="0.5"/>
</g>
<path d="M333.713 177.511C334.291 177.576 334.706 177.731 334.958 177.975C335.219 178.211 335.349 178.602 335.349 179.148V180.552C335.349 181.113 335.215 181.529 334.946 181.797C334.686 182.058 334.275 182.188 333.713 182.188H332.016V183.409H331.258V182.188H329.561C328.999 182.188 328.584 182.058 328.316 181.797C328.055 181.529 327.925 181.113 327.925 180.552V179.807H328.902V180.381C328.902 180.739 328.975 180.991 329.122 181.138C329.268 181.284 329.52 181.358 329.879 181.358H333.371C333.729 181.358 333.981 181.284 334.128 181.138C334.275 180.991 334.348 180.739 334.348 180.381V179.343C334.348 179.001 334.279 178.765 334.14 178.635C334.002 178.496 333.745 178.407 333.371 178.366L329.683 177.963C329.105 177.898 328.686 177.747 328.426 177.511C328.173 177.267 328.047 176.872 328.047 176.327V175.277C328.047 174.715 328.177 174.304 328.438 174.043C328.706 173.775 329.122 173.64 329.683 173.64H331.258V172.419H332.016V173.64H333.542C334.104 173.64 334.515 173.775 334.775 174.043C335.044 174.304 335.178 174.715 335.178 175.277V175.826H334.201V175.448C334.201 175.089 334.128 174.837 333.981 174.691C333.835 174.544 333.583 174.471 333.224 174.471H330.025C329.667 174.471 329.415 174.544 329.268 174.691C329.122 174.837 329.048 175.089 329.048 175.448V176.131C329.048 176.482 329.118 176.722 329.256 176.852C329.402 176.982 329.659 177.068 330.025 177.108L333.713 177.511Z" fill="white"/>
<g filter="url(#filter4_b_485_716)">
<path d="M351.059 137.609H365.304V152.872L358.182 160.504L351.059 152.872V137.609Z" fill="#EB3000" fill-opacity="0.5"/>
</g>
<path d="M360.17 145.967C360.748 146.032 361.163 146.187 361.415 146.431C361.676 146.667 361.806 147.058 361.806 147.604V149.008C361.806 149.569 361.672 149.985 361.403 150.253C361.143 150.514 360.732 150.644 360.17 150.644H358.473V151.865H357.716V150.644H356.018C355.457 150.644 355.041 150.514 354.773 150.253C354.512 149.985 354.382 149.569 354.382 149.008V148.263H355.359V148.837C355.359 149.195 355.432 149.447 355.579 149.594C355.725 149.74 355.978 149.814 356.336 149.814H359.828C360.186 149.814 360.438 149.74 360.585 149.594C360.732 149.447 360.805 149.195 360.805 148.837V147.799C360.805 147.457 360.736 147.221 360.597 147.091C360.459 146.952 360.202 146.863 359.828 146.822L356.14 146.419C355.562 146.354 355.143 146.203 354.883 145.967C354.63 145.723 354.504 145.328 354.504 144.783V143.733C354.504 143.171 354.634 142.76 354.895 142.499C355.163 142.231 355.579 142.097 356.14 142.097H357.716V140.875H358.473V142.097H359.999C360.561 142.097 360.972 142.231 361.232 142.499C361.501 142.76 361.635 143.171 361.635 143.733V144.282H360.658V143.904C360.658 143.546 360.585 143.293 360.438 143.147C360.292 143 360.04 142.927 359.681 142.927H356.482C356.124 142.927 355.872 143 355.725 143.147C355.579 143.293 355.505 143.546 355.505 143.904V144.588C355.505 144.938 355.575 145.178 355.713 145.308C355.859 145.438 356.116 145.524 356.482 145.564L360.17 145.967Z" fill="white"/>
<g filter="url(#filter5_b_485_716)">
<path d="M368.357 70.4495H382.603V85.7129L375.48 93.3446L368.357 85.7129V70.4495Z" fill="#EB3000" fill-opacity="0.5"/>
</g>
<path d="M377.469 78.8079C378.047 78.873 378.462 79.0277 378.714 79.2719C378.975 79.508 379.105 79.8987 379.105 80.4441V81.8484C379.105 82.4101 378.971 82.8252 378.702 83.0939C378.441 83.3544 378.03 83.4846 377.469 83.4846H375.771V84.7057H375.014V83.4846H373.317C372.755 83.4846 372.34 83.3544 372.072 83.0939C371.811 82.8252 371.681 82.4101 371.681 81.8484V81.1035H372.658V81.6774C372.658 82.0356 372.731 82.288 372.877 82.4345C373.024 82.581 373.276 82.6543 373.635 82.6543H377.127C377.485 82.6543 377.737 82.581 377.884 82.4345C378.03 82.288 378.104 82.0356 378.104 81.6774V80.6395C378.104 80.2976 378.034 80.0615 377.896 79.9313C377.758 79.7929 377.501 79.7034 377.127 79.6627L373.439 79.2597C372.861 79.1946 372.442 79.044 372.181 78.8079C371.929 78.5637 371.803 78.1689 371.803 77.6235V76.5733C371.803 76.0116 371.933 75.6005 372.194 75.3401C372.462 75.0714 372.877 74.9371 373.439 74.9371H375.014V73.716H375.771V74.9371H377.298C377.859 74.9371 378.271 75.0714 378.531 75.3401C378.8 75.6005 378.934 76.0116 378.934 76.5733V77.1228H377.957V76.7443C377.957 76.3861 377.884 76.1338 377.737 75.9872C377.591 75.8407 377.338 75.7674 376.98 75.7674H373.781C373.423 75.7674 373.171 75.8407 373.024 75.9872C372.877 76.1338 372.804 76.3861 372.804 76.7443V77.4281C372.804 77.7781 372.873 78.0183 373.012 78.1485C373.158 78.2788 373.415 78.3642 373.781 78.4049L377.469 78.8079Z" fill="white"/>
<g filter="url(#filter6_b_485_716)">
<path d="M491.482 37.8877H505.728V53.1511L498.605 60.7828L491.482 53.1511V37.8877Z" fill="#EB3000" fill-opacity="0.5"/>
</g>
<path d="M500.594 46.2461C501.172 46.3113 501.587 46.4659 501.839 46.7101C502.1 46.9462 502.23 47.337 502.23 47.8824V49.2866C502.23 49.8483 502.096 50.2635 501.827 50.5321C501.566 50.7926 501.155 50.9229 500.594 50.9229H498.896V52.1439H498.139V50.9229H496.442C495.88 50.9229 495.465 50.7926 495.197 50.5321C494.936 50.2635 494.806 49.8483 494.806 49.2866V48.5418H495.783V49.1157C495.783 49.4738 495.856 49.7262 496.002 49.8727C496.149 50.0193 496.401 50.0925 496.76 50.0925H500.252C500.61 50.0925 500.862 50.0193 501.009 49.8727C501.155 49.7262 501.229 49.4738 501.229 49.1157V48.0777C501.229 47.7358 501.159 47.4998 501.021 47.3695C500.883 47.2311 500.626 47.1416 500.252 47.1009L496.564 46.6979C495.986 46.6328 495.567 46.4822 495.306 46.2461C495.054 46.0019 494.928 45.6071 494.928 45.0617V44.0116C494.928 43.4499 495.058 43.0388 495.319 42.7783C495.587 42.5096 496.002 42.3753 496.564 42.3753H498.139V41.1543H498.896V42.3753H500.423C500.984 42.3753 501.396 42.5096 501.656 42.7783C501.925 43.0388 502.059 43.4499 502.059 44.0116V44.5611H501.082V44.1825C501.082 43.8243 501.009 43.572 500.862 43.4255C500.716 43.2789 500.463 43.2057 500.105 43.2057H496.906C496.548 43.2057 496.296 43.2789 496.149 43.4255C496.002 43.572 495.929 43.8243 495.929 44.1825V44.8663C495.929 45.2164 495.998 45.4565 496.137 45.5868C496.283 45.717 496.54 45.8025 496.906 45.8432L500.594 46.2461Z" fill="white"/>
<g filter="url(#filter7_b_485_716)">
<path d="M565.766 0.237793H580.011V15.5012L572.889 23.1329L565.766 15.5012V0.237793Z" fill="#EB3000" fill-opacity="0.5"/>
</g>
<path d="M574.877 8.59623C575.455 8.66136 575.87 8.81603 576.122 9.06024C576.383 9.29632 576.513 9.68706 576.513 10.2325V11.6367C576.513 12.1984 576.379 12.6136 576.11 12.8822C575.85 13.1427 575.439 13.2729 574.877 13.2729H573.18V14.494H572.423V13.2729H570.725C570.164 13.2729 569.748 13.1427 569.48 12.8822C569.219 12.6136 569.089 12.1984 569.089 11.6367V10.8919H570.066V11.4658C570.066 11.8239 570.139 12.0763 570.286 12.2228C570.432 12.3694 570.685 12.4426 571.043 12.4426H574.535C574.893 12.4426 575.146 12.3694 575.292 12.2228C575.439 12.0763 575.512 11.8239 575.512 11.4658V10.4278C575.512 10.0859 575.443 9.84987 575.304 9.71962C575.166 9.58123 574.909 9.49169 574.535 9.45099L570.847 9.04803C570.269 8.98291 569.85 8.83231 569.59 8.59623C569.337 8.35202 569.211 7.95721 569.211 7.41179V6.36167C569.211 5.79997 569.341 5.38888 569.602 5.12838C569.87 4.85975 570.286 4.72543 570.847 4.72543H572.423V3.50435H573.18V4.72543H574.706C575.268 4.72543 575.679 4.85975 575.939 5.12838C576.208 5.38888 576.342 5.79997 576.342 6.36167V6.91115H575.365V6.53262C575.365 6.17444 575.292 5.92208 575.146 5.77555C574.999 5.62902 574.747 5.55576 574.388 5.55576H571.189C570.831 5.55576 570.579 5.62902 570.432 5.77555C570.286 5.92208 570.212 6.17444 570.212 6.53262V7.21642C570.212 7.56646 570.282 7.80661 570.42 7.93685C570.567 8.0671 570.823 8.15258 571.189 8.19328L574.877 8.59623Z" fill="white"/>
<defs>
<filter id="filter0_b_485_716" x="132.312" y="262.797" width="22.3299" height="30.9791" filterUnits="userSpaceOnUse" color-interpolation-filters="sRGB">
<feFlood flood-opacity="0" result="BackgroundImageFix"/>
<feGaussianBlur in="BackgroundImageFix" stdDeviation="2.02096"/>
<feComposite in2="SourceAlpha" operator="in" result="effect1_backgroundBlur_485_716"/>
<feBlend mode="normal" in="SourceGraphic" in2="effect1_backgroundBlur_485_716" result="shape"/>
</filter>
<filter id="filter1_b_485_716" x="283.927" y="239.393" width="22.3299" height="30.9791" filterUnits="userSpaceOnUse" color-interpolation-filters="sRGB">
<feFlood flood-opacity="0" result="BackgroundImageFix"/>
<feGaussianBlur in="BackgroundImageFix" stdDeviation="2.02096"/>
<feComposite in2="SourceAlpha" operator="in" result="effect1_backgroundBlur_485_716"/>
<feBlend mode="normal" in="SourceGraphic" in2="effect1_backgroundBlur_485_716" result="shape"/>
</filter>
<filter id="filter2_b_485_716" x="308.349" y="205.814" width="22.3299" height="30.9791" filterUnits="userSpaceOnUse" color-interpolation-filters="sRGB">
<feFlood flood-opacity="0" result="BackgroundImageFix"/>
<feGaussianBlur in="BackgroundImageFix" stdDeviation="2.02096"/>
<feComposite in2="SourceAlpha" operator="in" result="effect1_backgroundBlur_485_716"/>
<feBlend mode="normal" in="SourceGraphic" in2="effect1_backgroundBlur_485_716" result="shape"/>
</filter>
<filter id="filter3_b_485_716" x="320.56" y="165.111" width="22.3299" height="30.9791" filterUnits="userSpaceOnUse" color-interpolation-filters="sRGB">
<feFlood flood-opacity="0" result="BackgroundImageFix"/>
<feGaussianBlur in="BackgroundImageFix" stdDeviation="2.02096"/>
<feComposite in2="SourceAlpha" operator="in" result="effect1_backgroundBlur_485_716"/>
<feBlend mode="normal" in="SourceGraphic" in2="effect1_backgroundBlur_485_716" result="shape"/>
</filter>
<filter id="filter4_b_485_716" x="347.017" y="133.567" width="22.3299" height="30.9791" filterUnits="userSpaceOnUse" color-interpolation-filters="sRGB">
<feFlood flood-opacity="0" result="BackgroundImageFix"/>
<feGaussianBlur in="BackgroundImageFix" stdDeviation="2.02096"/>
<feComposite in2="SourceAlpha" operator="in" result="effect1_backgroundBlur_485_716"/>
<feBlend mode="normal" in="SourceGraphic" in2="effect1_backgroundBlur_485_716" result="shape"/>
</filter>
<filter id="filter5_b_485_716" x="364.316" y="66.4075" width="22.3299" height="30.9791" filterUnits="userSpaceOnUse" color-interpolation-filters="sRGB">
<feFlood flood-opacity="0" result="BackgroundImageFix"/>
<feGaussianBlur in="BackgroundImageFix" stdDeviation="2.02096"/>
<feComposite in2="SourceAlpha" operator="in" result="effect1_backgroundBlur_485_716"/>
<feBlend mode="normal" in="SourceGraphic" in2="effect1_backgroundBlur_485_716" result="shape"/>
</filter>
<filter id="filter6_b_485_716" x="487.441" y="33.8458" width="22.3299" height="30.9791" filterUnits="userSpaceOnUse" color-interpolation-filters="sRGB">
<feFlood flood-opacity="0" result="BackgroundImageFix"/>
<feGaussianBlur in="BackgroundImageFix" stdDeviation="2.02096"/>
<feComposite in2="SourceAlpha" operator="in" result="effect1_backgroundBlur_485_716"/>
<feBlend mode="normal" in="SourceGraphic" in2="effect1_backgroundBlur_485_716" result="shape"/>
</filter>
<filter id="filter7_b_485_716" x="561.724" y="-3.80412" width="22.3299" height="30.9791" filterUnits="userSpaceOnUse" color-interpolation-filters="sRGB">
<feFlood flood-opacity="0" result="BackgroundImageFix"/>
<feGaussianBlur in="BackgroundImageFix" stdDeviation="2.02096"/>
<feComposite in2="SourceAlpha" operator="in" result="effect1_backgroundBlur_485_716"/>
<feBlend mode="normal" in="SourceGraphic" in2="effect1_backgroundBlur_485_716" result="shape"/>
</filter>
<linearGradient id="paint0_linear_485_716" x1="250.829" y1="-16.0433" x2="300.181" y2="368.086" gradientUnits="userSpaceOnUse">
<stop stop-color="#B50000"/>
<stop offset="1" stop-color="#B50000" stop-opacity="0"/>
</linearGradient>
</defs>
</svg>
